<svg width="40" height="46" viewBox="0 0 40 46" fill="none" xmlns="http://www.w3.org/2000/svg">
<path d="M30.1074 14.5748C30.7734 13.2095 31.1175 11.6887 31.1175 10.1569C31.1175 4.56226 26.5663 0 20.9606 0C15.355 0 10.8038 4.55116 10.8038 10.1569C10.8038 12.9986 11.9693 15.6404 13.9896 17.5386H9.43845C7.07407 17.5386 5.1537 19.459 5.1537 21.8234C5.1537 23.999 6.79656 25.8084 8.90563 26.0748L3.88826 38.4517C1.89019 38.4739 0.269531 40.1057 0.269531 42.1149C0.269531 44.1351 1.91239 45.778 3.93266 45.778H8.25071C10.1156 45.778 11.8583 45.0343 13.1571 43.6911C14.3559 42.4479 15.0219 40.8494 15.0663 39.14L19.6619 43.7799C19.6952 43.8132 19.7285 43.8354 19.7618 43.8687C21.8376 45.2674 24.2353 46 26.7329 46C26.7884 46 26.8439 46 26.9105 46C29.4635 45.9667 31.9167 45.1675 33.9925 43.68C36.5345 41.8596 38.2995 39.1844 38.9433 36.1207C39.5982 33.0681 39.0876 29.8933 37.5002 27.207L30.1074 14.5748ZM37.6445 35.8431C37.0673 38.5738 35.4911 40.9715 33.2155 42.5922C29.4635 45.2674 24.3907 45.3562 20.561 42.8031L14.8221 37.0087C14.6334 36.8089 14.3337 36.7534 14.0895 36.8644C13.8342 36.9754 13.6788 37.2196 13.6899 37.4971L13.7343 38.7625C13.7898 40.2611 13.2459 41.6931 12.2024 42.7698C11.159 43.8465 9.76036 44.4459 8.25071 44.4459H3.93266C2.64501 44.4459 1.60158 43.4025 1.60158 42.1149C1.60158 40.8272 2.64501 39.7838 3.93266 39.7838H4.34337C4.60978 39.7838 4.85399 39.6173 4.96499 39.3731L10.3265 26.1081H18.3743L24.4684 35.8764C24.5905 36.0763 24.8125 36.1873 25.0345 36.1873C25.1566 36.1873 25.2787 36.154 25.3897 36.0874C25.7005 35.8875 25.8004 35.4879 25.6006 35.166L19.3067 25.0869C19.1846 24.8871 18.9737 24.7761 18.7406 24.7761H9.87137H9.44955C7.81779 24.7761 6.49685 23.4551 6.49685 21.8234C6.49685 20.1916 7.81779 18.8707 9.44955 18.8707H15.9322H15.9433C15.9544 18.8707 15.9544 18.8707 15.9655 18.8707H20.9606C21.327 18.8707 21.6267 18.5709 21.6267 18.2046C21.6267 17.8383 21.327 17.5386 20.9606 17.5386H16.1431C13.6344 15.8958 12.1469 13.154 12.1469 10.1569C12.1469 5.29488 16.0987 1.33205 20.9718 1.33205C25.8448 1.33205 29.7966 5.28378 29.7966 10.1569C29.7966 11.5999 29.4413 13.0208 28.7753 14.2862V14.2973C28.7642 14.3084 28.7642 14.3195 28.7642 14.3306C28.7642 14.3417 28.7531 14.3528 28.7531 14.3528C28.7531 14.3639 28.742 14.375 28.742 14.3861C28.742 14.3972 28.7309 14.4083 28.7309 14.4194C28.7309 14.4305 28.7309 14.4416 28.7198 14.4416C28.7198 14.4527 28.7198 14.4638 28.7087 14.4749C28.7087 14.486 28.7087 14.4971 28.7087 14.4971C28.7087 14.5082 28.7087 14.5193 28.7087 14.5304C28.7087 14.5415 28.7087 14.5526 28.7087 14.5637C28.7087 14.5748 28.7087 14.5859 28.7087 14.597C28.7087 14.6081 28.7087 14.6192 28.7087 14.6303C28.7087 14.6414 28.7087 14.6525 28.7087 14.6525C28.7087 14.6636 28.7087 14.6747 28.7198 14.6969C28.7198 14.708 28.7198 14.708 28.7198 14.7191C28.7198 14.7302 28.7309 14.7413 28.7309 14.7524C28.7309 14.7635 28.7309 14.7746 28.742 14.7746C28.742 14.7857 28.7531 14.7968 28.7531 14.8079C28.7531 14.819 28.7642 14.8301 28.7642 14.8412C28.7642 14.8523 28.7753 14.8634 28.7753 14.8634C28.7864 14.8745 28.7864 14.8856 28.7975 14.8967V14.9078L36.3902 27.8509C37.7777 30.2819 38.2329 33.1125 37.6445 35.8431Z" fill="#5A6DB4"/>
</svg>
