<svg width="40" height="44" viewBox="0 0 40 44" fill="none" xmlns="http://www.w3.org/2000/svg">
<g clip-path="url(#clip0_880_1267)">
<path d="M3.89505 11.964C3.66328 12.3484 3.64953 12.8141 3.85836 13.2099C4.90439 15.1923 6.9454 16.4238 9.18485 16.4238C11.4245 16.4238 13.4655 15.1923 14.5115 13.2098C14.7203 12.8141 14.7065 12.3483 14.4746 11.9639C14.2409 11.5765 13.8318 11.3452 13.3801 11.3452H4.98964C4.53795 11.3452 4.12863 11.5765 3.89505 11.964ZM13.3576 12.6343C12.5313 14.1775 10.9352 15.1348 9.18485 15.1348C7.43473 15.1348 5.83861 14.1775 5.01215 12.6343H13.3576Z" fill="#5A6DB4"/>
<path d="M14.9141 6.6665C14.9141 5.47593 13.9455 4.50732 12.7549 4.50732C11.5643 4.50732 10.5957 5.47593 10.5957 6.6665C10.5957 7.85708 11.5643 8.82568 12.7549 8.82568C13.9455 8.82568 14.9141 7.85708 14.9141 6.6665ZM11.8848 6.6665C11.8848 6.18671 12.2751 5.79639 12.7549 5.79639C13.2347 5.79639 13.625 6.18671 13.625 6.6665C13.625 7.14629 13.2347 7.53662 12.7549 7.53662C12.2751 7.53662 11.8848 7.14629 11.8848 6.6665Z" fill="#5A6DB4"/>
<path d="M5.61426 8.82568C6.80484 8.82568 7.77344 7.85708 7.77344 6.6665C7.77344 5.47593 6.80484 4.50732 5.61426 4.50732C4.42368 4.50732 3.45508 5.47601 3.45508 6.6665C3.45508 7.857 4.42368 8.82568 5.61426 8.82568ZM5.61426 5.79639C6.09405 5.79639 6.48438 6.18671 6.48438 6.6665C6.48438 7.14629 6.09405 7.53662 5.61426 7.53662C5.13447 7.53662 4.74414 7.14629 4.74414 6.6665C4.74414 6.18671 5.13447 5.79639 5.61426 5.79639Z" fill="#5A6DB4"/>
<path d="M9.6786 8.41084C9.55614 8.26552 9.37585 8.18164 9.18575 8.18164C8.99566 8.18164 8.81528 8.2656 8.6929 8.41092L7.95049 9.29212C7.72112 9.56437 7.75584 9.97095 8.02809 10.2002C8.30034 10.4296 8.70682 10.3947 8.93619 10.1226L9.18567 9.82648L9.43523 10.1227C9.56268 10.274 9.74495 10.3519 9.92843 10.3519C10.075 10.3519 10.2225 10.3021 10.3434 10.2002C10.6156 9.97086 10.6503 9.56429 10.4209 9.29204L9.6786 8.41084Z" fill="#5A6DB4"/>
<path d="M23.5197 38.0046C23.8348 38.1708 24.2245 38.0501 24.3906 37.7353C24.8672 36.8319 25.797 36.2708 26.8171 36.2708C27.8374 36.2708 28.7672 36.8319 29.2438 37.7353C29.4099 38.05 29.7996 38.1708 30.1147 38.0046C30.4294 37.8384 30.55 37.4486 30.384 37.1337C29.6837 35.8063 28.3168 34.9817 26.8171 34.9817C25.3174 34.9817 23.9508 35.8063 23.2504 37.1337C23.0843 37.4487 23.2048 37.8385 23.5197 38.0046Z" fill="#5A6DB4"/>
<path d="M32.5469 29.8538C32.5469 29.4977 32.2584 29.2092 31.9023 29.2092C31.5463 29.2092 31.2578 29.4977 31.2578 29.8538C31.2578 30.3335 30.8675 30.7239 30.3877 30.7239C29.9079 30.7239 29.5176 30.3335 29.5176 29.8538C29.5176 29.4977 29.2291 29.2092 28.873 29.2092C28.517 29.2092 28.2285 29.4977 28.2285 29.8538C28.2285 31.0443 29.1971 32.0129 30.3877 32.0129C31.5783 32.0129 32.5469 31.0443 32.5469 29.8538Z" fill="#5A6DB4"/>
<path d="M25.4082 29.8538C25.4082 29.4977 25.1197 29.2092 24.7637 29.2092C24.4076 29.2092 24.1191 29.4977 24.1191 29.8538C24.1191 30.3335 23.7288 30.7239 23.249 30.7239C22.7692 30.7239 22.3789 30.3335 22.3789 29.8538C22.3789 29.4977 22.0904 29.2092 21.7344 29.2092C21.3783 29.2092 21.0898 29.4977 21.0898 29.8538C21.0898 31.0443 22.0584 32.0129 23.249 32.0129C24.4396 32.0129 25.4082 31.0443 25.4082 29.8538Z" fill="#5A6DB4"/>
<path d="M26.5711 33.3096L26.8206 33.0135L27.0702 33.3097C27.1976 33.4611 27.3799 33.5389 27.5634 33.5389C27.71 33.5389 27.8574 33.4892 27.9784 33.3872C28.2505 33.1579 28.2852 32.7513 28.0559 32.479L27.3134 31.5978C27.1909 31.4525 27.0106 31.3687 26.8205 31.3687C26.6304 31.3687 26.45 31.4526 26.3277 31.5979L25.5853 32.4791C25.3559 32.7514 25.3906 33.158 25.6629 33.3872C25.9353 33.6166 26.3418 33.5818 26.5711 33.3096Z" fill="#5A6DB4"/>
<path d="M26.8193 8.13379H21.7344C21.3783 8.13379 21.0898 8.42228 21.0898 8.77833C21.0898 9.13437 21.3783 9.42286 21.7344 9.42286H26.1748V15.5828H24.3677C23.868 15.5828 23.4195 15.861 23.1976 16.3087C22.9756 16.7566 23.0257 17.2819 23.3283 17.6797L25.7799 20.9019C26.0291 21.2293 26.408 21.4172 26.8195 21.4172C27.2309 21.4171 27.6096 21.2292 27.8588 20.902L30.3105 17.6797C30.6131 17.2819 30.6632 16.7566 30.4412 16.3087C30.2192 15.861 29.7708 15.5828 29.2711 15.5828H27.4639V8.77833C27.4639 8.42237 27.1753 8.13379 26.8193 8.13379ZM29.2711 16.8719C29.2767 16.8719 29.2795 16.8726 29.2795 16.8726C29.2841 16.8754 29.2897 16.8868 29.2893 16.8917C29.2893 16.8917 29.2884 16.8942 29.2846 16.8992L26.8328 20.1215C26.8272 20.1289 26.8115 20.129 26.8058 20.1214V20.1215L24.3542 16.8993C24.3506 16.8945 24.3496 16.892 24.3496 16.892C24.349 16.8868 24.3547 16.8754 24.3587 16.8728C24.3587 16.8728 24.3613 16.8719 24.3676 16.8719H29.2711Z" fill="#5A6DB4"/>
<path d="M14.2678 35.5141H9.82733V29.0211H11.6345C12.1343 29.0211 12.5827 28.7429 12.8047 28.2952C13.0266 27.8474 12.9765 27.322 12.6739 26.9242L10.2223 23.702C9.97317 23.3745 9.59427 23.1868 9.18288 23.1868C8.77141 23.1868 8.39259 23.3746 8.14337 23.702V23.7021L5.69173 26.9242C5.38914 27.322 5.33904 27.8474 5.56101 28.2952C5.78299 28.7429 6.23142 29.0211 6.73115 29.0211H8.53826V36.1586C8.53826 36.5147 8.82675 36.8032 9.18279 36.8032H14.2678C14.6239 36.8032 14.9124 36.5147 14.9124 36.1586C14.9124 35.8026 14.6239 35.5141 14.2678 35.5141ZM6.73115 27.732C6.72548 27.732 6.72273 27.7314 6.72256 27.7314C6.71809 27.7285 6.7125 27.7172 6.71293 27.7123C6.71293 27.7123 6.71379 27.7098 6.71766 27.7046L9.1693 24.4825C9.17506 24.4751 9.1907 24.4751 9.19637 24.4825L11.648 27.7046C11.6516 27.7094 11.6527 27.7119 11.6527 27.7119C11.6532 27.7172 11.6475 27.7285 11.6435 27.7312C11.6435 27.7312 11.641 27.732 11.6346 27.732H6.73115Z" fill="#5A6DB4"/>
<path d="M18.6461 1.94427C18.6461 0.872187 17.7739 0 16.7018 0H10.6882C10.3322 0 10.0437 0.288494 10.0437 0.644536C10.0437 1.00058 10.3322 1.28907 10.6882 1.28907H16.7018C17.0631 1.28907 17.357 1.58298 17.357 1.94427V11.3514C17.357 15.8578 13.6908 19.524 9.18428 19.524C4.67785 19.524 1.01164 15.8578 1.01164 11.3514V1.94427C1.01173 1.58298 1.30564 1.28907 1.66692 1.28907H7.68045C8.03649 1.28907 8.32498 1.00058 8.32498 0.644536C8.32498 0.288494 8.03649 0 7.68045 0H1.66692C0.594843 0 -0.277344 0.872187 -0.277344 1.94427V11.3514C-0.277344 16.5686 3.96723 20.8131 9.18445 20.8131C14.4017 20.8131 18.6462 16.5686 18.6462 11.3514V1.94427H18.6461Z" fill="#5A6DB4"/>
<path d="M34.3366 23.1868H19.3017C18.2296 23.1868 17.3574 24.059 17.3574 25.1311V34.5383C17.3574 39.7555 21.6019 44 26.8191 44C32.0363 44 36.2809 39.7555 36.2809 34.5383V32.1149C36.2809 31.7588 35.9924 31.4704 35.6364 31.4704C35.2803 31.4704 34.9918 31.7588 34.9918 32.1149V34.5383C34.9918 39.0447 31.3256 42.7109 26.8191 42.7109C22.3127 42.7109 18.6465 39.0447 18.6465 34.5383V25.1311C18.6465 24.7698 18.9404 24.4758 19.3017 24.4758H34.3366C34.6979 24.4758 34.9918 24.7698 34.9918 25.1311V29.107C34.9918 29.4631 35.2803 29.7516 35.6363 29.7516C35.9923 29.7516 36.2808 29.4631 36.2808 29.107V25.1311C36.2808 24.059 35.4086 23.1868 34.3366 23.1868Z" fill="#5A6DB4"/>
</g>
<defs>
<clipPath id="clip0_880_1267">
<rect width="44" height="44" fill="white" transform="translate(-4)"/>
</clipPath>
</defs>
</svg>
