<svg width="44" height="39" viewBox="0 0 44 39" fill="none" xmlns="http://www.w3.org/2000/svg">
<path d="M4.57665 23.6161L17.0618 36.1013C18.5612 37.6007 20.531 38.3553 22.5008 38.3553C24.4706 38.3553 26.4404 37.6007 27.9398 36.1013L31.4188 32.6223L40.4152 23.6259C42.9142 21.1269 44.3744 17.8145 44.5312 14.2963C44.688 10.7193 43.463 7.35792 41.0816 4.81972C38.6022 2.18352 35.2506 0.703725 31.6442 0.654725C31.5756 0.654725 31.507 0.654725 31.4384 0.654725C28.0966 0.654725 24.9508 1.87972 22.5008 4.13372C20.0019 1.84052 16.7776 0.605725 13.3574 0.654725C9.75105 0.713525 6.39945 2.19332 3.92005 4.81972C1.52885 7.34812 0.30385 10.7095 0.46065 14.2865C0.61745 17.8047 2.07765 21.1171 4.57665 23.6161ZM1.68565 14.9333C5.42925 15.8055 21.7854 19.4609 32.3792 18.8239C32.536 18.8141 32.6928 18.7357 32.7908 18.6181C32.8888 18.5005 32.9476 18.3339 32.928 18.1771C32.8986 17.8635 32.8986 16.8737 33.3004 16.4229C33.4474 16.2563 33.6434 16.1779 33.9178 16.1779C34.2314 16.1779 34.4568 16.2661 34.6234 16.4425C34.9958 16.8443 35.0252 17.6283 35.0056 17.9027C34.986 18.0889 35.0644 18.2751 35.2114 18.3927C35.3486 18.5103 35.5446 18.5593 35.7308 18.5201C35.7504 18.5201 37.3478 18.1477 39.053 17.9125C41.8166 17.5303 42.5222 17.8341 42.6594 17.9125C42.6496 17.9321 42.6398 17.9615 42.63 18.0007C41.4638 20.4507 40.4446 22.1069 38.661 23.2633C36.7598 24.4981 34.006 25.1449 29.7332 25.3507C22.099 25.7133 15.6409 24.3021 13.9847 23.9003C13.9258 23.1947 13.6906 21.8815 12.8576 21.0975C12.3872 20.6565 11.7797 20.4409 11.0936 20.4801C10.2215 20.5389 9.77065 20.9701 9.54525 21.3229C9.02585 22.1461 9.22185 23.3515 9.42765 24.1159L7.05605 24.4491L5.40965 22.8027C3.28305 20.6565 1.97965 17.8929 1.68565 14.9333ZM30.7132 31.6717C23.1378 33.7689 13.818 30.4859 12.691 30.0645L8.09485 25.4683L10.29 25.1645C10.4664 25.1351 10.6233 25.0371 10.7212 24.8803C10.8193 24.7235 10.829 24.5373 10.7604 24.3707C10.535 23.8219 10.192 22.5087 10.5547 21.9403C10.6233 21.8227 10.7702 21.6659 11.1818 21.6463C11.5444 21.6267 11.8286 21.7149 12.0638 21.9403C12.7008 22.5381 12.8478 23.8905 12.8478 24.3609C12.8478 24.6255 13.0242 24.8607 13.279 24.9293C13.3574 24.9489 20.7858 26.9579 29.8018 26.5267C32.8692 26.3797 35.2114 26.0073 37.044 25.3507L30.7132 31.6717ZM27.1068 35.2683C24.5686 37.8065 20.433 37.8065 17.885 35.2683L14.5237 31.9069C15.5723 32.2107 16.9051 32.5635 18.4436 32.8575C20.9818 33.3475 23.1868 33.5435 25.0685 33.5435C26.656 33.5435 28.0182 33.4063 29.1648 33.2103L27.1068 35.2683ZM4.77265 5.62332C7.03645 3.22232 10.0842 1.87972 13.377 1.83072C13.4358 1.83072 13.5044 1.83072 13.5632 1.83072C16.7875 1.83072 19.8058 3.08512 22.0893 5.35872C22.1971 5.46652 22.344 5.53512 22.5008 5.53512C22.6576 5.53512 22.8046 5.47632 22.9124 5.35872C25.235 3.03612 28.3318 1.78172 31.6246 1.83072C34.9174 1.87972 37.9652 3.23212 40.229 5.63312C42.3948 7.93612 43.5022 10.9937 43.365 14.2473C43.3258 15.1097 43.1984 15.9623 42.9926 16.7855C42.3752 16.5405 41.2286 16.4425 38.9354 16.7463C37.8378 16.8933 36.799 17.0991 36.1522 17.2363C36.0934 16.7463 35.917 16.1289 35.4858 15.6585C35.0938 15.2371 34.5548 15.0117 33.9178 15.0117C33.3102 15.0117 32.8006 15.2273 32.4282 15.6487C31.899 16.2465 31.7618 17.0991 31.7422 17.6871C20.9328 18.1673 4.49825 14.3943 1.62685 13.7083C1.61705 10.6507 2.72445 7.78912 4.77265 5.62332Z" fill="#5A6DB4"/>
</svg>
