<svg width="37" height="51" viewBox="0 0 37 51" fill="none" xmlns="http://www.w3.org/2000/svg">
<path d="M18.6852 41.9994C17.2334 41.8578 15.9785 43.0041 15.9785 44.4529C15.9785 45.8125 17.0847 46.9187 18.4443 46.9187C19.804 46.9187 20.9102 45.8125 20.9102 44.4529C20.9101 43.1877 19.9563 42.1332 18.6852 41.9994ZM18.4442 45.4392C17.9004 45.4392 17.4579 44.9967 17.4579 44.4529C17.4579 43.8817 17.955 43.4144 18.5364 43.4714C19.0462 43.525 19.4306 43.947 19.4306 44.4529C19.4306 44.9967 18.9881 45.4392 18.4442 45.4392Z" fill="#5A6DB4"/>
<path d="M6.26337 8.55807C5.74949 8.3033 5.14644 8.3607 4.68997 8.70809L0.991798 11.5219C0.615905 11.8078 0.400391 12.2426 0.400391 12.7149C0.400391 13.1871 0.616004 13.6219 0.991798 13.9079L4.68997 16.7217C5.14644 17.0691 5.74949 17.1266 6.26337 16.8717C6.77735 16.6169 7.09663 16.1024 7.09663 15.5287V13.4545H11.7091V22.7238C6.86878 25.2027 3.54818 30.2432 3.54818 36.0447C3.54818 44.291 10.2571 50.9999 18.5034 50.9999C26.265 50.9999 32.6795 45.076 33.3921 37.453C33.4301 37.0462 33.1312 36.6856 32.7244 36.6476C32.3169 36.6089 31.957 36.9086 31.919 37.3153C31.2686 44.2734 25.5012 49.5204 18.5033 49.5204C11.0727 49.5204 5.02759 43.4752 5.02759 36.0447C5.02759 28.6141 11.0727 22.5689 18.5033 22.5689C25.1265 22.5689 30.8561 27.5007 31.8306 34.0409C31.8907 34.445 32.267 34.7238 32.6712 34.6635C33.0753 34.6034 33.3541 34.227 33.2938 33.8229C32.5853 29.0684 29.6023 24.9165 25.2975 22.7215V13.4545H29.91V15.5287C29.91 16.1024 30.2293 16.617 30.7432 16.8718C31.2591 17.1275 31.8618 17.0678 32.3165 16.7217L36.0148 13.9079C36.3907 13.6219 36.6062 13.1871 36.6062 12.7149C36.6062 12.2426 36.3906 11.8078 36.0148 11.5219L32.3166 8.70809C31.86 8.3607 31.2571 8.3033 30.7432 8.55797C30.2293 8.81274 29.91 9.32731 29.91 9.90106V11.9751H24.5577C24.1491 11.9751 23.818 12.3063 23.818 12.7149V22.0658C22.3615 21.5122 20.8184 21.1863 19.243 21.1084V7.19623H21.317C21.8907 7.19623 22.4053 6.87696 22.6601 6.36288C22.9149 5.8489 22.8573 5.24605 22.51 4.78957L19.6964 1.09131C19.4103 0.715514 18.9755 0.5 18.5032 0.5C18.031 0.5 17.5964 0.715613 17.3104 1.09141L14.4967 4.78957C14.1493 5.24605 14.0917 5.849 14.3465 6.36298C14.6013 6.87706 15.1159 7.19633 15.6896 7.19633H17.7636V21.108C16.1598 21.1865 14.6219 21.5196 13.1886 22.0663V12.715C13.1886 12.3064 12.8575 11.9752 12.4489 11.9752H7.09663V9.90106C7.09672 9.32741 6.77735 8.81284 6.26337 8.55807ZM5.61722 15.5288C5.61722 15.5357 5.61633 15.5387 5.61643 15.5387C5.61337 15.5436 5.60104 15.5498 5.59522 15.5498C5.59493 15.5498 5.60173 15.5563 5.58576 15.5443L1.88759 12.7305C1.88335 12.7272 1.87989 12.7245 1.87989 12.7149C1.87989 12.7052 1.88335 12.7027 1.88759 12.6994L5.58576 9.88558C5.59138 9.88143 5.59424 9.88025 5.59424 9.88025C5.60065 9.87976 5.61318 9.88617 5.61623 9.8908C5.61623 9.8908 5.61722 9.89376 5.61722 9.90106V15.5288ZM31.3897 9.90106C31.3897 9.89416 31.3906 9.8912 31.3906 9.8912C31.3935 9.88627 31.4059 9.88005 31.4116 9.88005C31.4116 9.88005 31.4051 9.87344 31.421 9.88558L35.1193 12.6994C35.1236 12.7027 35.127 12.7052 35.127 12.7149C35.127 12.7245 35.1236 12.7272 35.1193 12.7305L31.421 15.5443C31.4155 15.5484 31.4127 15.5496 31.4127 15.5497C31.4041 15.5485 31.3936 15.5437 31.3907 15.5392C31.3907 15.5392 31.3897 15.5362 31.3897 15.5289V9.90106ZM15.6896 5.71673C15.683 5.71673 15.6798 5.71594 15.6798 5.71594C15.6745 5.71269 15.6681 5.69967 15.6686 5.69424C15.6686 5.69424 15.6696 5.69128 15.6741 5.68546L18.4879 1.9872C18.4944 1.97862 18.5124 1.97871 18.5189 1.9872L21.3328 5.68546C21.3368 5.69089 21.338 5.69375 21.338 5.69375C21.3386 5.69977 21.3321 5.71278 21.3276 5.71574C21.3276 5.71574 21.3246 5.71673 21.3173 5.71673H15.6896Z" fill="#5A6DB4"/>
<path d="M20.9701 37.8176C20.9701 37.7246 21.014 37.6675 21.0268 37.6594C23.5684 36.5882 25.161 34.0162 24.9899 31.2594C24.8226 28.5639 22.9719 26.2282 20.3848 25.4473C19.9938 25.3292 19.581 25.5506 19.4629 25.9417C19.3447 26.3329 19.5661 26.7456 19.9573 26.8638C21.9551 27.4668 23.3841 29.2701 23.5133 31.3512C23.6456 33.4816 22.4155 35.4689 20.4523 36.2962C19.8771 36.5385 19.4907 37.1501 19.4907 37.8177V38.1803C19.4907 38.7242 19.0482 39.1666 18.5043 39.1666C17.9605 39.1666 17.518 38.7242 17.518 38.1803V37.8177C17.518 36.3442 18.3691 35.0334 19.6863 34.4783C20.8781 33.9759 21.6248 32.7684 21.5444 31.4733C21.4513 29.9718 20.2021 28.7225 18.7003 28.6293C16.925 28.5199 15.458 29.9201 15.458 31.6695C15.458 32.2134 15.0156 32.6558 14.4717 32.6558C13.9278 32.6558 13.4854 32.2134 13.4854 31.6695C13.4854 29.5135 14.8794 27.5672 16.9476 26.8952C17.336 26.769 17.5488 26.3517 17.4224 25.963C17.2961 25.5744 16.8788 25.3623 16.4902 25.4881C13.7926 26.3649 12.0059 28.8952 12.0059 31.6694C12.0059 33.0291 13.112 34.1352 14.4717 34.1352C15.8314 34.1352 16.9375 33.0291 16.9375 31.6694C16.9375 30.7766 17.6832 30.0496 18.6088 30.1058C19.3663 30.1529 20.0207 30.8074 20.0678 31.5649C20.1093 32.2335 19.725 32.8563 19.1117 33.1149C17.2448 33.9016 16.0385 35.7475 16.0385 37.8176V38.1802C16.0385 39.5399 17.1447 40.646 18.5043 40.646C19.864 40.646 20.9702 39.5399 20.9702 38.1802V37.8176H20.9701Z" fill="#5A6DB4"/>
</svg>
