<svg width="49" height="50" viewBox="0 0 49 50" fill="none" xmlns="http://www.w3.org/2000/svg">
<path d="M10.5389 21.7846C16.1861 21.7846 20.7829 17.1878 20.7829 11.5406C20.7829 11.5302 20.7829 11.5302 20.7829 11.5198C20.7725 5.88303 16.1861 1.29663 10.5389 1.29663C4.90212 1.29663 0.305322 5.88303 0.294922 11.5198C0.294922 11.5302 0.294922 11.5302 0.294922 11.5406C0.305322 17.1878 4.89172 21.7846 10.5389 21.7846ZM10.5389 20.5366C5.73412 20.5366 1.79252 16.751 1.55332 11.9982C3.39412 11.4366 10.1333 9.16943 14.5221 5.08223C14.4493 5.91423 14.4701 6.93343 14.8133 7.94223C15.4581 9.84543 17.0389 11.2078 19.5141 11.9982C19.2853 16.751 15.3437 20.5366 10.5389 20.5366ZM19.4933 10.6774C15.3021 9.14863 15.5829 6.07023 15.8845 4.31263C17.8813 5.78943 19.2437 8.07743 19.4933 10.6774ZM10.5389 2.54463C11.9325 2.54463 13.2533 2.86703 14.4285 3.42863C12.0885 5.90383 8.69812 7.75503 6.18132 8.89903C4.25732 9.77263 2.55172 10.3758 1.58452 10.6878C2.02132 6.13263 5.86932 2.54463 10.5389 2.54463Z" fill="#5A6DB4"/>
<path d="M45.6911 11.5198C45.6807 5.88303 41.0943 1.29663 35.4471 1.29663C29.8103 1.29663 25.2135 5.88303 25.2031 11.5198C25.2031 11.5302 25.2031 11.5302 25.2031 11.5406C25.2031 17.1878 29.7999 21.7846 35.4471 21.7846C41.0943 21.7846 45.6911 17.1878 45.6911 11.5406C45.6911 11.5406 45.6911 11.5302 45.6911 11.5198ZM44.4119 10.6774C40.2207 9.14863 40.5015 6.07023 40.8031 4.31263C42.7999 5.78943 44.1623 8.07743 44.4119 10.6774ZM35.4575 2.54463C36.8511 2.54463 38.1719 2.86703 39.3471 3.42863C37.0071 5.90383 33.6167 7.75503 31.0999 8.89903C29.1759 9.77263 27.4703 10.3758 26.5031 10.6878C26.9295 6.13263 30.7879 2.54463 35.4575 2.54463ZM35.4575 20.5366C30.6527 20.5366 26.7111 16.751 26.4719 11.9982C28.3127 11.4366 35.0519 9.16943 39.4407 5.08223C39.3679 5.91423 39.3887 6.93343 39.7319 7.94223C40.3767 9.84543 41.9575 11.2078 44.4327 11.9982C44.1935 16.751 40.2623 20.5366 35.4575 20.5366Z" fill="#5A6DB4"/>
<path d="M10.5389 46.6928C16.1861 46.6928 20.7829 42.096 20.7829 36.4488C20.7829 36.4384 20.7829 36.4384 20.7829 36.428C20.7725 30.7912 16.1861 26.2048 10.5389 26.2048C4.90212 26.2048 0.305322 30.7912 0.294922 36.428C0.294922 36.4384 0.294922 36.4384 0.294922 36.4488C0.305322 42.1064 4.89172 46.6928 10.5389 46.6928ZM10.5389 45.4552C5.73412 45.4552 1.79252 41.6696 1.55332 36.9168C3.39412 36.3552 10.1333 34.088 14.5221 30.0008C14.4493 30.8328 14.4701 31.852 14.8133 32.8608C15.4581 34.764 17.0389 36.1264 19.5141 36.9168C19.2853 41.6592 15.3437 45.4552 10.5389 45.4552ZM19.4933 35.5856C15.3021 34.0568 15.5829 30.9784 15.8845 29.2208C17.8813 30.708 19.2437 32.9856 19.4933 35.5856ZM10.5389 27.4632C11.9325 27.4632 13.2533 27.7856 14.4285 28.3472C12.0885 30.8224 8.69812 32.6736 6.18132 33.8176C4.25732 34.6912 2.55172 35.2944 1.58452 35.6064C2.02132 31.0408 5.86932 27.4632 10.5389 27.4632Z" fill="#5A6DB4"/>
<path d="M45.6911 36.4383C45.6807 30.8015 41.0943 26.2151 35.4471 26.2151C29.8103 26.2151 25.2135 30.8015 25.2031 36.4383C25.2031 36.4487 25.2031 36.4487 25.2031 36.4591C25.2031 42.1063 29.7999 46.7031 35.4471 46.7031C41.0943 46.7031 45.6911 42.1063 45.6911 36.4591C45.6911 36.4487 45.6911 36.4487 45.6911 36.4383ZM44.4119 35.5855C40.2207 34.0567 40.5015 30.9783 40.8031 29.2207C42.7999 30.7079 44.1623 32.9855 44.4119 35.5855ZM35.4575 27.4631C36.8511 27.4631 38.1719 27.7855 39.3471 28.3471C37.0071 30.8223 33.6167 32.6735 31.0999 33.8175C29.1759 34.6911 27.4703 35.2943 26.5031 35.6063C26.9295 31.0407 30.7879 27.4631 35.4575 27.4631ZM35.4575 45.4551C30.6527 45.4551 26.7111 41.6695 26.4719 36.9167C28.3127 36.3551 35.0519 34.0879 39.4407 30.0007C39.3679 30.8327 39.3887 31.8519 39.7319 32.8607C40.3767 34.7639 41.9575 36.1263 44.4327 36.9167C44.1935 41.6591 40.2623 45.4551 35.4575 45.4551Z" fill="#5A6DB4"/>
<path d="M13.8905 14.3279H7.50486C7.16166 14.3279 6.88086 14.6087 6.88086 14.9519C6.88086 15.2951 7.16166 15.5759 7.50486 15.5759H13.8905C14.2337 15.5759 14.5145 15.2951 14.5145 14.9519C14.5145 14.6087 14.2441 14.3279 13.8905 14.3279Z" fill="#5A6DB4"/>
<path d="M39.412 13.309L38.2472 13.8082C37.5712 14.0994 36.7912 14.0994 36.1048 13.7978C35.2416 13.413 34.264 13.361 33.3696 13.6418L31.0816 14.349C30.7488 14.453 30.572 14.7962 30.6656 15.129C30.7488 15.3994 30.9984 15.5658 31.2584 15.5658C31.3208 15.5658 31.3832 15.5554 31.4456 15.5346L33.7336 14.8274C34.3472 14.6402 35.0128 14.6714 35.6056 14.9314C36.604 15.3682 37.748 15.3682 38.736 14.9418L39.9008 14.4426C40.2128 14.3074 40.3584 13.9434 40.2232 13.621C40.088 13.3194 39.724 13.1738 39.412 13.309Z" fill="#5A6DB4"/>
<path d="M10.6984 37.2495C8.90964 37.2495 7.33924 38.4559 6.89204 40.1927C6.80884 40.5255 7.00644 40.8687 7.33924 40.9519C7.67204 41.0351 8.01524 40.8375 8.09844 40.5047C8.41044 39.3191 9.47124 38.4975 10.6984 38.4975C11.936 38.4975 13.0072 39.3295 13.3088 40.5255C13.3816 40.8063 13.6312 40.9935 13.912 40.9935C13.964 40.9935 14.016 40.9831 14.068 40.9727C14.4008 40.8895 14.6088 40.5463 14.5256 40.2135C14.0784 38.4767 12.508 37.2495 10.6984 37.2495Z" fill="#5A6DB4"/>
<path d="M38.818 37.2702C38.4852 37.187 38.142 37.3846 38.0588 37.7278C37.7572 38.9238 36.686 39.7558 35.4484 39.7558C34.2212 39.7558 33.15 38.9342 32.8484 37.7486C32.7652 37.4158 32.422 37.2182 32.0892 37.3014C31.7564 37.3846 31.5588 37.7278 31.642 38.0606C32.0892 39.7974 33.6596 41.0038 35.4484 41.0038C37.258 41.0038 38.8284 39.7766 39.2652 38.0294C39.3484 37.6966 39.1508 37.3534 38.818 37.2702Z" fill="#5A6DB4"/>
</svg>
