<svg width="43" height="46" viewBox="0 0 43 46" fill="none" xmlns="http://www.w3.org/2000/svg">
<path d="M34.818 43.2615H11.5448C9.72641 43.2615 8.32484 41.6515 8.58359 39.8475C8.71297 38.9203 9.27359 38.1081 10.0858 37.6553L21.9236 31.4812H34.1208C34.1208 31.4812 35.5295 37.1378 32.1083 39.6318" stroke="#5A6DB4" stroke-width="1.4375" stroke-miterlimit="10" stroke-linecap="round" stroke-linejoin="round"/>
<path d="M34.6184 39.7109L19.5605 39.2366" stroke="#5A6DB4" stroke-width="1.4375" stroke-miterlimit="10" stroke-linecap="round" stroke-linejoin="round"/>
<path d="M13.7174 15.6543C17.286 15.6543 20.179 12.7614 20.179 9.19276C20.179 5.62414 17.286 2.7312 13.7174 2.7312C10.1488 2.7312 7.25586 5.62414 7.25586 9.19276C7.25586 12.7614 10.1488 15.6543 13.7174 15.6543Z" stroke="#5A6DB4" stroke-width="1.4375" stroke-miterlimit="10" stroke-linecap="round" stroke-linejoin="round"/>
<path d="M9.01758 21.656V24.6819" stroke="#5A6DB4" stroke-width="1.4375" stroke-miterlimit="10" stroke-linecap="round" stroke-linejoin="round"/>
<path d="M5.93359 28.405V31.431" stroke="#5A6DB4" stroke-width="1.4375" stroke-miterlimit="10" stroke-linecap="round" stroke-linejoin="round"/>
<path d="M0.650391 20.1467V23.1655" stroke="#5A6DB4" stroke-width="1.4375" stroke-miterlimit="10" stroke-linecap="round" stroke-linejoin="round"/>
<path d="M4.0918 10.5513V13.5772" stroke="#5A6DB4" stroke-width="1.4375" stroke-miterlimit="10" stroke-linecap="round" stroke-linejoin="round"/>
<path d="M26.6035 4.07544V7.10138" stroke="#5A6DB4" stroke-width="1.4375" stroke-miterlimit="10" stroke-linecap="round" stroke-linejoin="round"/>
<path d="M32.7188 12.7866V15.8054" stroke="#5A6DB4" stroke-width="1.4375" stroke-miterlimit="10" stroke-linecap="round" stroke-linejoin="round"/>
<path d="M37.5703 4.62866V7.6546" stroke="#5A6DB4" stroke-width="1.4375" stroke-miterlimit="10" stroke-linecap="round" stroke-linejoin="round"/>
<path d="M39.3477 19.7368V22.7628" stroke="#5A6DB4" stroke-width="1.4375" stroke-miterlimit="10" stroke-linecap="round" stroke-linejoin="round"/>
<path d="M38.4629 30.4248V33.4507" stroke="#5A6DB4" stroke-width="1.4375" stroke-miterlimit="10" stroke-linecap="round" stroke-linejoin="round"/>
<path d="M1.71484 36.4263V39.445" stroke="#5A6DB4" stroke-width="1.4375" stroke-miterlimit="10" stroke-linecap="round" stroke-linejoin="round"/>
<path d="M21.609 16.9698L22.8021 21.5698C23.1184 22.7773 23.0249 24.0639 22.4571 25.1779C22.4212 25.2498 22.3852 25.3217 22.3493 25.3864L17.7205 33.6807L12.7324 36.2826L17.3899 25.4654L17.4043 25.4367C17.9721 24.1142 18.0727 22.6407 17.6702 21.2679C17.0665 19.1548 15.974 17.6526 16.2399 15.1514" stroke="#5A6DB4" stroke-width="1.4375" stroke-miterlimit="10" stroke-linecap="round" stroke-linejoin="round"/>
<path d="M21.9323 31.4813C21.9323 31.4813 22.3852 30.0222 21.1992 27.4419" stroke="#5A6DB4" stroke-width="1.4375" stroke-miterlimit="10" stroke-linecap="round" stroke-linejoin="round"/>
<path d="M20.0273 10.6016C20.473 10.5082 21.1055 10.5154 21.8673 10.9251C34.8192 17.8395 34.1292 31.6179 34.1292 31.6179" stroke="#5A6DB4" stroke-width="1.4375" stroke-miterlimit="10" stroke-linecap="round" stroke-linejoin="round"/>
</svg>
