<svg width="44" height="51" viewBox="0 0 44 51" fill="none" xmlns="http://www.w3.org/2000/svg">
<path d="M31.7521 9.45252C30.3913 7.88652 28.5445 6.82812 26.5141 6.45012C25.9525 5.19732 25.1209 4.05252 24.0733 3.12372C21.9781 1.26612 19.1701 0.39132 16.3621 0.72612C12.0421 1.24452 8.45652 4.74372 7.86251 9.05292C7.45212 12.0337 8.38092 15.0577 10.2709 17.1421H4.84932C2.17092 17.1421 -0.0214844 19.3237 -0.0214844 22.0129C-0.0214844 24.0325 1.18812 25.8037 3.06732 26.5381L4.21212 26.9809L4.16892 30.0589C4.12572 32.7805 5.82132 35.2213 8.33772 36.1717L7.76532 46.6693C7.75452 46.8421 7.81932 47.0149 7.93812 47.1445C8.05692 47.2741 8.22972 47.3497 8.40252 47.3497H32.5189C32.8753 47.3497 33.1669 47.0581 33.1669 46.7017C33.1777 45.2437 33.2101 43.7533 33.2317 42.3169C33.3505 36.2797 33.4693 30.0373 32.2273 23.9245L31.9141 22.3693C31.8601 22.1101 31.7953 21.8509 31.7197 21.6025C33.2101 19.9177 34.0309 17.7685 34.0309 15.5005C34.0201 13.2865 33.2101 11.1373 31.7521 9.45252ZM5.45412 30.0697L5.49732 27.4777L15.2281 31.2901C16.2541 31.6897 16.9129 32.6617 16.9129 33.7633C16.9129 34.6057 16.5241 35.3833 15.8545 35.8909C15.1849 36.3985 14.3317 36.5605 13.5217 36.3229L9.16932 35.0809C6.95532 34.4545 5.42172 32.3917 5.45412 30.0697ZM9.60132 36.5497L12.7225 37.4461L13.1977 46.0537H9.07212L9.60132 36.5497ZM31.9357 42.2953C31.9141 43.5265 31.8925 44.7901 31.8709 46.0537H14.5045L14.0401 37.7161C14.1157 37.7161 14.1913 37.7269 14.2669 37.7269C15.1093 37.7269 15.9409 37.4569 16.6321 36.9277C17.6365 36.1717 18.2089 35.0269 18.2089 33.7741C18.2089 32.1325 17.2261 30.6961 15.7033 30.0913L5.11932 25.9441C5.10852 25.9441 5.09772 25.9333 5.08692 25.9333L3.54252 25.3285C2.16012 24.7885 1.27452 23.4817 1.27452 22.0021C1.27452 20.0365 2.87292 18.4273 4.84932 18.4273H15.4333C15.7897 18.4273 16.0813 18.1357 16.0813 17.7793C16.0813 17.4229 15.7897 17.1313 15.4333 17.1313H12.1717C12.1501 17.1097 12.1285 17.0989 12.1069 17.0773C9.88212 15.3385 8.72652 12.2497 9.14772 9.22572C9.66612 5.48892 12.7657 2.45412 16.5241 2.01132C18.9973 1.71972 21.3733 2.45412 23.2201 4.09572C25.0345 5.71572 26.0821 8.02692 26.0821 10.4569C26.0821 12.7465 25.1857 14.8957 23.5549 16.5049C23.3713 16.6885 23.3173 16.9693 23.4145 17.2069C23.5117 17.4445 23.7493 17.6065 24.0085 17.6065H24.5053C27.4753 17.6065 30.0565 19.7125 30.6505 22.6285L30.9637 24.1837C32.1733 30.1669 32.0545 36.3337 31.9357 42.2953ZM25.3909 16.3645C26.6761 14.6689 27.3673 12.6169 27.3673 10.4569C27.3673 9.58212 27.2485 8.72892 27.0325 7.90812C28.4797 8.32932 29.7757 9.16092 30.7801 10.3057C32.0329 11.7421 32.7241 13.5889 32.7241 15.5113C32.7241 17.2393 32.1625 18.9025 31.1365 20.2633C29.9809 18.1357 27.8425 16.6561 25.3909 16.3645Z" fill="#5A6DB4"/>
</svg>
