<svg width="45" height="46" viewBox="0 0 45 46" fill="none" xmlns="http://www.w3.org/2000/svg">
<path d="M39.9583 41.8312C37.7087 31.5675 45.004 27.8372 43.5305 18.7522C42.3158 11.2556 37.9387 7.95654 31.0315 7.95654C24.4405 7.95654 19.1002 13.2969 19.1002 19.8878C19.1002 21.1815 19.3087 22.425 19.6824 23.5894L17.9215 28.0815C17.6915 28.6637 18.1083 29.2962 18.7337 29.3178L20.5593 29.3825L21.6446 34.3778C21.9393 35.729 23.2115 36.6347 24.5843 36.4765L31.0243 35.729C31.0243 35.729 32.7205 35.2547 33.6908 32.0419" stroke="#5A6DB4" stroke-width="1.4375" stroke-miterlimit="10" stroke-linecap="round" stroke-linejoin="round"/>
<path d="M28.1426 36.0598C28.1426 36.0598 30.4713 38.7983 29.1488 41.8314" stroke="#5A6DB4" stroke-width="1.4375" stroke-miterlimit="10" stroke-linecap="round" stroke-linejoin="round"/>
<path d="M6.04588 38.0436C8.29556 27.7799 1.00025 24.0496 2.47369 14.9646C3.68838 7.46801 8.06556 4.16895 14.9728 4.16895C21.5637 4.16895 26.904 9.50926 26.904 16.1002C26.904 17.3939 26.6956 18.6374 26.3218 19.8018L28.0828 24.2939C28.3128 24.8761 27.8959 25.5086 27.2706 25.5302L25.4449 25.5949L24.3596 30.5902C24.0649 31.9414 22.7927 32.8471 21.4199 32.6889L14.9799 31.9414C14.9799 31.9414 13.2837 31.4671 12.3134 28.2543" stroke="#5A6DB4" stroke-width="1.4375" stroke-miterlimit="10" stroke-linecap="round" stroke-linejoin="round"/>
<path d="M17.8638 32.2722C17.8638 32.2722 15.535 35.0107 16.8575 38.0438" stroke="#5A6DB4" stroke-width="1.4375" stroke-miterlimit="10" stroke-linecap="round" stroke-linejoin="round"/>
</svg>
