<svg width="45" height="51" viewBox="0 0 45 51" fill="none" xmlns="http://www.w3.org/2000/svg">
<path d="M41.1724 23.0523H37.52V20.4579C37.52 11.9019 30.5556 4.9375 21.9996 4.9375C13.4436 4.9375 6.47918 11.9019 6.47918 20.4671V23.0615H2.82678C1.54798 23.0615 0.517578 24.1011 0.517578 25.3707V33.0711C0.517578 34.3499 1.55718 35.3803 2.82678 35.3803H7.03118H10.2328C10.5364 35.3803 10.7848 35.1319 10.7848 34.8283V21.4883C10.7848 14.7355 15.8172 9.2339 21.9996 9.2339C28.182 9.2339 33.2144 14.7263 33.2144 21.4883V34.8375C33.2144 35.1411 33.4628 35.3895 33.7664 35.3895H36.416V35.5735C36.416 38.2047 34.2724 40.3483 31.6412 40.3483H25.3944V39.2903C25.3944 38.9867 25.146 38.7383 24.8424 38.7383H19.6352C19.3316 38.7383 19.0832 38.9867 19.0832 39.2903V42.5103C19.0832 42.8139 19.3316 43.0623 19.6352 43.0623H24.8424C25.146 43.0623 25.3944 42.8139 25.3944 42.5103V41.4523H31.6412C34.8796 41.4523 37.52 38.8119 37.52 35.5735V35.3895H41.1724C42.4512 35.3895 43.4816 34.3499 43.4816 33.0803V25.3799C43.4908 24.0919 42.4512 23.0523 41.1724 23.0523ZM24.2904 41.9583H20.178V39.8423H24.2904V41.9583ZM1.61238 33.0711V25.3707C1.61238 24.6991 2.15518 24.1563 2.82678 24.1563H6.47918V34.2855H2.82678C2.15518 34.2855 1.61238 33.7335 1.61238 33.0711ZM21.9996 8.1299C15.21 8.1299 9.68078 14.1191 9.68078 21.4883V34.2855H7.58318V23.6135V20.4671C7.58318 12.5183 14.0508 6.0507 21.9996 6.0507C29.9484 6.0507 36.416 12.5183 36.416 20.4671V23.6135V34.2855H34.3092V21.4883C34.3184 14.1191 28.7892 8.1299 21.9996 8.1299ZM42.3868 33.0711C42.3868 33.7427 41.844 34.2855 41.1724 34.2855H37.52V24.1563H41.1724C41.844 24.1563 42.3868 24.6991 42.3868 25.3707V33.0711Z" fill="#5A6DB4"/>
<path d="M31.5955 23.6688C31.5955 18.3788 27.2899 14.0732 21.9999 14.0732C16.7099 14.0732 12.4043 18.3788 12.4043 23.6688C12.4043 28.9588 16.7099 33.2552 21.9999 33.2552C27.2899 33.2552 31.5955 28.9588 31.5955 23.6688ZM13.5083 23.6688C13.5083 18.986 17.3171 15.1772 21.9999 15.1772C26.6827 15.1772 30.4915 18.986 30.4915 23.6688C30.4915 28.3516 26.6827 32.1604 21.9999 32.1604C17.3171 32.1604 13.5083 28.3516 13.5083 23.6688Z" fill="#5A6DB4"/>
<path d="M20.8786 22.8961C20.8786 21.6725 19.885 20.6697 18.6522 20.6697C17.4194 20.6697 16.4258 21.6633 16.4258 22.8961C16.4258 23.1997 16.6742 23.4481 16.9778 23.4481C17.2814 23.4481 17.5298 23.1997 17.5298 22.8961C17.5298 22.2797 18.0358 21.7737 18.6522 21.7737C19.2134 21.7737 19.6734 22.1785 19.7562 22.7121L16.5546 26.5945C16.4166 26.7601 16.389 26.9901 16.481 27.1833C16.573 27.3765 16.7662 27.4961 16.9778 27.4961H20.3266C20.6302 27.4961 20.8786 27.2477 20.8786 26.9441C20.8786 26.6405 20.6302 26.3921 20.3266 26.3921H18.1462L20.7498 23.2365C20.8326 23.1537 20.8786 23.0249 20.8786 22.8961Z" fill="#5A6DB4"/>
<path d="M23.4708 24.8648H26.47V26.9532C26.47 27.2568 26.7184 27.5052 27.022 27.5052C27.3256 27.5052 27.574 27.2568 27.574 26.9532V22.7672C27.574 22.4636 27.3256 22.2152 27.022 22.2152C26.7184 22.2152 26.47 22.4636 26.47 22.7672V23.7608H24.5196L26.056 21.5344C26.2308 21.286 26.1664 20.9364 25.918 20.7708C25.6696 20.596 25.32 20.6604 25.1544 20.9088L23.0108 24C22.8912 24.1656 22.882 24.3864 22.974 24.5704C23.066 24.7544 23.2684 24.8648 23.4708 24.8648Z" fill="#5A6DB4"/>
</svg>
