<svg width="43" height="50" viewBox="0 0 43 50" fill="none" xmlns="http://www.w3.org/2000/svg">
<path d="M15.428 39.422L8.31055 33.377L31.3612 6.32886L38.4787 12.3739L15.428 39.422Z" stroke="#5A6DB4" stroke-width="1.625" stroke-miterlimit="10" stroke-linecap="round" stroke-linejoin="round"/>
<path d="M34.9199 9.35118L39.3968 4.08618" stroke="#5A6DB4" stroke-width="1.625" stroke-miterlimit="10" stroke-linecap="round" stroke-linejoin="round"/>
<path d="M36.4707 1.59985L42.3207 6.56423" stroke="#5A6DB4" stroke-width="1.625" stroke-miterlimit="10" stroke-linecap="round" stroke-linejoin="round"/>
<path d="M15.4271 39.4156L8.31055 33.3735L6.42275 35.5971L13.5393 41.6391L15.4271 39.4156Z" stroke="#5A6DB4" stroke-width="1.625" stroke-miterlimit="10" stroke-linecap="round" stroke-linejoin="round"/>
<path d="M6.69129 39.1573L9.98633 41.9548L11.627 40.0224L8.33194 37.2249L6.69129 39.1573Z" stroke="#5A6DB4" stroke-width="1.625" stroke-miterlimit="10" stroke-linecap="round" stroke-linejoin="round"/>
<path d="M8.34219 40.5593L1.67969 48.3999" stroke="#5A6DB4" stroke-width="1.625" stroke-miterlimit="10" stroke-linecap="round" stroke-linejoin="round"/>
<path d="M15.8666 24.5207L5.52344 12.3739L9.08219 9.35136L12.6409 6.32886L22.0009 17.3139" stroke="#5A6DB4" stroke-width="1.625" stroke-miterlimit="10" stroke-linecap="round" stroke-linejoin="round"/>
<path d="M28.1425 24.5125L35.6906 33.385L28.5731 39.4218L22 31.7112" stroke="#5A6DB4" stroke-width="1.625" stroke-miterlimit="10" stroke-linecap="round" stroke-linejoin="round"/>
<path d="M9.08039 9.35118L4.60352 4.08618" stroke="#5A6DB4" stroke-width="1.625" stroke-miterlimit="10" stroke-linecap="round" stroke-linejoin="round"/>
<path d="M7.52969 1.59985L1.67969 6.56423" stroke="#5A6DB4" stroke-width="1.625" stroke-miterlimit="10" stroke-linecap="round" stroke-linejoin="round"/>
<path d="M30.4674 41.6458L37.584 35.6038L35.6962 33.3802L28.5796 39.4222L30.4674 41.6458Z" stroke="#5A6DB4" stroke-width="1.625" stroke-miterlimit="10" stroke-linecap="round" stroke-linejoin="round"/>
<path d="M35.6661 37.2279L32.3711 40.0254L34.0117 41.9578L37.3068 39.1603L35.6661 37.2279Z" stroke="#5A6DB4" stroke-width="1.625" stroke-miterlimit="10" stroke-linecap="round" stroke-linejoin="round"/>
<path d="M35.6582 40.5593L42.3207 48.3999" stroke="#5A6DB4" stroke-width="1.625" stroke-miterlimit="10" stroke-linecap="round" stroke-linejoin="round"/>
</svg>
