<svg width="45" height="48" viewBox="0 0 45 48" fill="none" xmlns="http://www.w3.org/2000/svg">
<g clip-path="url(#clip0_880_1249)">
<path d="M33.9465 6.24397C33.7006 5.95389 33.2663 5.91781 32.9761 6.16374C32.686 6.40957 32.6501 6.84396 32.8959 7.13404C35.1631 9.80994 36.4117 13.2172 36.4117 16.7281V17.529C33.7245 18.3445 30.2475 18.9273 26.4456 19.1948L26.3647 17.707C26.3375 17.2084 26.0408 16.7649 25.5901 16.5496C25.1395 16.3344 24.6079 16.3821 24.2031 16.6744L20.8866 19.0674C20.5079 19.3407 20.2969 19.7822 20.3224 20.2484C20.3478 20.7147 20.6054 21.1307 21.0114 21.3613L24.5681 23.3804C25.0024 23.6269 25.536 23.6167 25.9606 23.3538C26.3851 23.0908 26.6319 22.6177 26.6048 22.1192L26.5205 20.57C30.2444 20.3091 33.6801 19.7493 36.4118 18.9647V23.5018C36.4118 27.122 35.0937 30.6093 32.7003 33.3215C31.111 35.1224 30.2357 37.5212 30.2357 40.0761V45.9523C30.2357 46.0464 30.1591 46.123 30.065 46.123H24.2235C23.8432 46.123 23.535 46.4312 23.535 46.8114C23.535 47.1917 23.8432 47.4999 24.2235 47.4999H30.065C30.9184 47.4999 31.6127 46.8057 31.6127 45.9523V40.0761C31.6127 37.8569 32.3655 35.7818 33.7326 34.2326C36.3482 31.2687 37.7888 27.4578 37.7888 23.5018V18.529C37.8206 18.5179 37.8531 18.5069 37.8848 18.4957C41.2245 17.314 42.9898 15.7868 42.9898 14.0791C42.9898 11.5016 39.1564 9.92037 35.8481 9.0359C35.316 8.04715 34.6805 7.11026 33.9465 6.24397ZM21.7075 20.1731L24.9909 17.804L25.2285 22.1719L21.7075 20.1731ZM41.6127 14.079C41.6127 15.0556 40.1908 16.1599 37.7887 17.0645V16.7282C37.7887 14.6466 37.3862 12.5986 36.6229 10.6931C40.2717 11.8328 41.6127 13.1585 41.6127 14.079Z" fill="#5A6DB4"/>
<path d="M2.78154 25.1938L0.642109 27.3334C0.0221999 27.9532 -0.15451 28.8413 0.18101 29.6511C0.516438 30.4611 1.26936 30.9641 2.14603 30.9641H5.22308C5.28284 30.9641 5.33159 31.0128 5.33159 31.0725V33.7123C5.33159 38.0467 8.85781 41.5729 13.1922 41.5729C14.3505 41.5729 15.2929 42.5152 15.2929 43.6734V45.9647C15.2929 46.8112 15.9816 47.4999 16.8281 47.4999H21.0099C21.3902 47.4999 21.6984 47.1917 21.6984 46.8114C21.6984 46.4312 21.3902 46.1229 21.0099 46.1229H16.8281C16.7409 46.1229 16.6699 46.052 16.6699 45.9647V43.6734C16.6699 41.7559 15.1099 40.1959 13.1922 40.1959C9.61716 40.1959 6.70855 37.2873 6.70855 33.7123V31.0725C6.70855 30.2535 6.04219 29.5872 5.22308 29.5872H2.14603C1.68107 29.5872 1.49812 29.2328 1.45314 29.1242C1.40816 29.0156 1.2869 28.6358 1.61571 28.3071L3.75515 26.1675C5.65958 24.2632 6.70846 21.731 6.70846 19.0378V18.9644C10.7505 20.1255 16.1175 20.6015 17.0936 20.6015C17.454 20.6015 17.757 20.321 17.7802 19.9564C17.8041 19.5769 17.516 19.2498 17.1365 19.2259C13.1546 18.9741 9.50406 18.3771 6.70846 17.5287V16.7282C6.70846 8.53917 13.3707 1.87696 21.5597 1.87696C24.898 1.87696 28.0515 2.95917 30.6792 5.00653C30.9791 5.24015 31.4117 5.18663 31.6454 4.88664C31.8791 4.58665 31.8254 4.15409 31.5254 3.92038C28.6537 1.68272 25.2075 0.5 21.5597 0.5C15.3929 0.5 10.0189 3.95774 7.27357 9.03598C3.97097 9.91889 0.132082 11.5003 0.132082 14.0792C0.132082 15.787 1.89735 17.3142 5.23704 18.4958C5.26816 18.5068 5.3001 18.5176 5.33141 18.5285V19.0378C5.3315 21.3632 4.42591 23.5495 2.78154 25.1938ZM1.50905 14.0791C1.50905 13.1595 2.84856 11.8339 6.49549 10.6942C5.74532 12.5605 5.3315 14.5967 5.3315 16.7281V17.064C2.93035 16.1596 1.50905 15.0556 1.50905 14.0791Z" fill="#5A6DB4"/>
</g>
<defs>
<clipPath id="clip0_880_1249">
<rect width="47" height="47" fill="white" transform="translate(-2 0.5)"/>
</clipPath>
</defs>
</svg>
