<svg width="35" height="48" viewBox="0 0 35 48" fill="none" xmlns="http://www.w3.org/2000/svg">
<path d="M17.5192 47.2528H33.676C34.0324 47.2528 34.324 46.9612 34.324 46.6048V16.2892C34.324 11.98 32.7688 8.07045 29.95 5.29485C26.926 2.31405 22.6276 0.748047 17.53 0.748047C15.9424 0.748047 11.8384 0.964047 7.96122 3.01605C5.53122 4.30125 3.59802 6.08325 2.22642 8.31885C0.552418 11.0404 -0.300781 14.4532 -0.300781 18.4384V25.8796C-0.300781 26.236 -0.00918123 26.5276 0.347219 26.5276H4.01922V35.4592C4.01922 36.8092 4.67802 38.062 5.81202 38.8828C7.06482 39.79 8.71722 40.0384 10.2076 39.5416L16.882 37.3276V46.6048C16.8712 46.9612 17.1628 47.2528 17.5192 47.2528ZM18.1672 45.9568V36.55C18.1996 36.4744 18.2212 36.388 18.2212 36.2908V31.2148C18.4912 31.2796 18.772 31.3228 19.0636 31.3228C20.932 31.3228 22.4548 29.8 22.4548 27.9316C22.4548 26.0524 20.932 24.5296 19.0636 24.5296C18.7828 24.5296 18.502 24.562 18.2212 24.6376V18.1684H22.9948C23.2324 18.1684 23.4484 18.0388 23.5564 17.8336C23.6752 17.6284 23.6644 17.38 23.5348 17.1748C23.308 16.8292 23.2 16.4296 23.2 16.03C23.2 14.8744 24.1504 13.924 25.306 13.924C26.4616 13.924 27.412 14.8636 27.412 16.03C27.412 16.4296 27.2932 16.8292 27.0772 17.1748C26.9476 17.3692 26.9476 17.6284 27.0556 17.8336C27.1744 18.0388 27.3904 18.1684 27.6172 18.1684H33.028V45.9676H18.1672V45.9568ZM33.0172 16.2892V16.8508H28.5892C28.6648 16.57 28.6972 16.2892 28.6972 16.0084C28.6972 14.14 27.1744 12.6172 25.306 12.6172C23.4268 12.6172 21.904 14.14 21.904 16.0084C21.904 16.2892 21.9364 16.5808 22.012 16.8508H18.2212V13.6432C18.2212 13.4056 18.0916 13.1896 17.8864 13.0708C17.6812 12.9628 17.422 12.9628 17.2276 13.0924C16.882 13.3192 16.504 13.4272 16.0828 13.4272C14.9164 13.4272 13.9768 12.4876 13.9768 11.3212C13.9768 10.1548 14.9272 9.21525 16.0828 9.21525C16.4932 9.21525 16.882 9.32325 17.2276 9.55005C17.422 9.67965 17.6812 9.69045 17.8864 9.57165C18.0916 9.46365 18.2212 9.23685 18.2212 8.99925V2.09805C18.2212 2.08725 18.2212 2.07645 18.2212 2.06565C22.6708 2.20605 26.3968 3.63165 29.0428 6.23445C31.6024 8.75085 33.0172 12.3256 33.0172 16.2892ZM8.55522 4.16085C11.7628 2.46525 15.154 2.10885 16.9252 2.05485C16.9252 2.06565 16.9252 2.07645 16.9252 2.09805V8.04885C16.6552 7.97325 16.3636 7.94085 16.0828 7.94085C14.2036 7.94085 12.6808 9.46365 12.6808 11.3428C12.6808 13.2112 14.2036 14.734 16.0828 14.734C16.3744 14.734 16.6552 14.7016 16.9252 14.626V16.8508H11.0392C10.8016 16.8508 10.5856 16.9804 10.4668 17.1964C10.348 17.4124 10.3696 17.6608 10.4992 17.8552C10.7152 18.1792 10.834 18.5788 10.834 18.9892C10.834 20.1556 9.88362 21.0952 8.72802 21.0952C7.57242 21.0952 6.62202 20.1448 6.62202 18.9892C6.62202 18.5788 6.74082 18.19 6.95682 17.8552C7.08642 17.6608 7.09722 17.4016 6.98922 17.1964C6.88122 16.9912 6.65442 16.8508 6.41682 16.8508H1.03842C1.40562 10.8784 3.93282 6.61245 8.55522 4.16085ZM9.78642 38.3104C8.68482 38.6776 7.47522 38.494 6.55722 37.8352C5.75802 37.252 5.29362 36.388 5.29362 35.4592V25.8796C5.29362 25.5232 5.00202 25.2316 4.64562 25.2316H0.973618V18.4384C0.973618 18.3412 0.973618 18.244 0.973618 18.1468H5.41242C5.34762 18.4168 5.30442 18.6976 5.30442 18.9892C5.30442 20.8684 6.82722 22.3912 8.69562 22.3912C10.5748 22.3912 12.0976 20.8684 12.0976 18.9892C12.0976 18.6976 12.0652 18.4168 11.9896 18.1468H16.8928V25.5988C16.8928 25.8364 17.0224 26.0524 17.2276 26.1712C17.4328 26.2792 17.692 26.2792 17.8864 26.1496C18.232 25.9228 18.61 25.8148 19.0204 25.8148C20.176 25.8148 21.1264 26.7652 21.1264 27.9208C21.1264 29.0764 20.1868 30.0268 19.0204 30.0268C18.61 30.0268 18.232 29.9188 17.8864 29.692C17.692 29.5624 17.4328 29.5516 17.2276 29.6704C17.0224 29.7892 16.8928 30.0052 16.8928 30.2428V35.9452L9.78642 38.3104Z" fill="#5A6DB4"/>
</svg>
