<svg width="35" height="36" viewBox="0 0 35 36" fill="none" xmlns="http://www.w3.org/2000/svg">
<mask id="mask0_331_65" style="mask-type:luminance" maskUnits="userSpaceOnUse" x="0" y="0" width="35" height="36">
<path d="M35 0.160156H0V35.1602H35V0.160156Z" fill="white"/>
</mask>
<g mask="url(#mask0_331_65)">
<path d="M35.0005 17.7676C35.0005 8.04196 27.1648 0.158203 17.5005 0.158203C7.83172 0.160391 -0.00390625 8.04196 -0.00390625 17.7698C-0.00390625 26.557 6.39672 33.8414 14.7617 35.1626V22.8579H10.3211V17.7698H14.7661V13.887C14.7661 9.47477 17.3802 7.03789 21.3767 7.03789C23.293 7.03789 25.2945 7.38133 25.2945 7.38133V11.7126H23.0873C20.9152 11.7126 20.237 13.0711 20.237 14.4645V17.7676H25.0889L24.3145 22.8557H20.2348V35.1604C28.5998 33.8392 35.0005 26.5548 35.0005 17.7676Z" fill="white"/>
</g>
</svg>
