<svg width="35" height="36" viewBox="0 0 35 36" fill="none" xmlns="http://www.w3.org/2000/svg">
<mask id="mask0_331_71" style="mask-type:luminance" maskUnits="userSpaceOnUse" x="0" y="0" width="35" height="36">
<path d="M35 0.160156H0V35.1602H35V0.160156Z" fill="white"/>
</mask>
<g mask="url(#mask0_331_71)">
<path d="M25.5769 0.160156H9.42308C6.92474 0.162829 4.5295 1.15647 2.76291 2.92307C0.996317 4.68966 0.00267249 7.0849 0 9.58324V25.7371C0.00267249 28.2355 0.996317 30.6307 2.76291 32.3973C4.5295 34.1639 6.92474 35.1575 9.42308 35.1602H25.5769C28.0753 35.1575 30.4705 34.1639 32.2371 32.3973C34.0037 30.6307 34.9973 28.2355 35 25.7371V9.58324C34.9973 7.0849 34.0037 4.68966 32.2371 2.92307C30.4705 1.15647 28.0753 0.162829 25.5769 0.160156ZM17.5 25.7371C15.9025 25.7371 14.3409 25.2634 13.0127 24.3759C11.6845 23.4884 10.6492 22.227 10.0379 20.7511C9.42657 19.2752 9.26662 17.6512 9.57827 16.0845C9.88992 14.5177 10.6592 13.0785 11.7888 11.949C12.9183 10.8194 14.3575 10.0501 15.9243 9.73843C17.491 9.42678 19.115 9.58673 20.5909 10.1981C22.0668 10.8094 23.3282 11.8447 24.2157 13.1729C25.1032 14.5011 25.5769 16.0627 25.5769 17.6602C25.5747 19.8016 24.723 21.8548 23.2088 23.369C21.6946 24.8832 19.6414 25.7349 17.5 25.7371ZM27.5962 9.58324C27.1968 9.58324 26.8064 9.46481 26.4743 9.24294C26.1423 9.02106 25.8835 8.7057 25.7306 8.33673C25.5778 7.96777 25.5378 7.56177 25.6157 7.17007C25.6936 6.77838 25.8859 6.41859 26.1683 6.13619C26.4507 5.8538 26.8105 5.66149 27.2022 5.58357C27.5939 5.50566 27.9999 5.54565 28.3689 5.69848C28.7378 5.85131 29.0532 6.11012 29.2751 6.44218C29.497 6.77424 29.6154 7.16464 29.6154 7.56401C29.6154 8.09954 29.4026 8.61314 29.024 8.99182C28.6453 9.3705 28.1317 9.58324 27.5962 9.58324ZM22.8846 17.6602C22.8846 18.7252 22.5688 19.7662 21.9771 20.6517C21.3855 21.5372 20.5445 22.2274 19.5606 22.6349C18.5767 23.0425 17.494 23.1491 16.4495 22.9414C15.405 22.7336 14.4456 22.2207 13.6925 21.4677C12.9395 20.7146 12.4266 19.7552 12.2188 18.7107C12.0111 17.6662 12.1177 16.5835 12.5253 15.5996C12.9328 14.6157 13.623 13.7747 14.5085 13.1831C15.394 12.5914 16.435 12.2756 17.5 12.2756C18.9281 12.2756 20.2977 12.8429 21.3075 13.8527C22.3173 14.8625 22.8846 16.2321 22.8846 17.6602Z" fill="white"/>
</g>
</svg>
