<svg width="34" height="34" viewBox="0 0 34 34" fill="none" xmlns="http://www.w3.org/2000/svg">
<path d="M33.83 16.9951C33.83 26.1983 26.3682 33.6601 17.165 33.6601C7.96175 33.6601 0.5 26.1983 0.5 16.9951C0.5 7.79183 7.96175 0.330078 17.165 0.330078C26.3682 0.330078 33.83 7.79183 33.83 16.9951Z" fill="url(#paint0_linear_539_972)"/>
<path opacity="0.05" d="M5.59839 16.5499C12.3936 13.4711 20.3744 10.1306 21.6035 9.6473C24.3132 8.58155 25.4948 9.67063 25.3098 11.408C25.0823 13.5369 24.0041 19.7321 23.3408 24.1708C22.9525 26.7681 21.546 27.5638 19.9587 26.5564C18.7546 25.7924 14.615 23.0818 13.526 22.1552C12.7835 21.5236 12.2661 20.8154 12.7927 20.0938C12.9469 19.8829 13.341 19.458 13.5601 19.2463C14.6592 18.1814 14.5109 17.9523 13.1818 18.903C13.0235 19.0164 12.1053 19.6821 11.7278 19.9338C10.8029 20.5504 9.95215 20.5837 8.50976 20.0938C7.32988 19.693 6.19666 19.3838 5.48173 19.0747C4.49433 18.6472 4.11604 17.2215 5.59839 16.5499Z" fill="black"/>
<path opacity="0.07" d="M6.19637 16.6543C12.5058 13.8337 20.265 10.6015 21.3999 10.1441C24.1196 9.04586 25.1203 9.69746 24.8279 11.8197C24.5562 13.7846 23.5922 19.8639 22.9164 23.9394C22.5181 26.3383 21.3549 26.8666 19.84 25.8867C18.891 25.2751 15.0713 22.7587 14.1448 22.0262C13.4282 21.4605 12.6857 20.8072 13.5532 19.8614C13.8431 19.5456 15.4446 18 16.642 16.8501C17.3361 16.1826 17.0886 15.8535 16.2512 16.4268C14.7155 17.4792 12.2033 19.1448 11.755 19.4473C10.9009 20.0223 10.0985 20.1606 8.70196 19.7215C7.60123 19.3748 6.53801 19.039 5.9839 18.8232C4.74569 18.3433 4.72902 17.31 6.19637 16.6543Z" fill="black"/>
<path d="M6.79388 16.7595C12.6183 14.1973 20.155 11.0734 21.1958 10.641C23.9247 9.50941 24.7621 9.72606 24.3446 12.2325C24.0447 14.034 23.1797 19.9975 22.4898 23.7097C22.0807 25.9111 21.1624 26.1719 19.7193 25.2195C19.0252 24.7612 15.5213 22.444 14.7606 21.8998C14.0665 21.4041 13.1091 20.8074 14.3098 19.6326C14.7372 19.2143 17.5378 16.5395 19.7201 14.4581C20.0059 14.1848 19.6468 13.7357 19.3168 13.9548C16.3754 15.9054 12.2975 18.6127 11.7784 18.9651C10.9943 19.4976 10.241 19.7417 8.8895 19.3534C7.86794 19.0601 6.87054 18.7102 6.48225 18.5768C4.98657 18.0636 5.34153 17.3986 6.79388 16.7595Z" fill="white"/>
<defs>
<linearGradient id="paint0_linear_539_972" x1="5.38118" y1="5.21126" x2="28.9488" y2="28.7789" gradientUnits="userSpaceOnUse">
<stop stopColor="#33BEF0"/>
<stop offset="1" stopColor="#0A85D9"/>
</linearGradient>
</defs>
</svg>
