<svg width="34" height="34" viewBox="0 0 34 34" fill="none" xmlns="http://www.w3.org/2000/svg">
<mask id="mask0_331_190" style="mask-type:luminance" maskUnits="userSpaceOnUse" x="0" y="0" width="34" height="34">
<path d="M33.83 0.330078H0.5V33.6601H33.83V0.330078Z" fill="white"/>
</mask>
<g mask="url(#mask0_331_190)">
<path d="M17.1692 0.330078H17.1608C7.97217 0.330078 0.5 7.80433 0.5 16.9951C0.5 20.6405 1.67488 24.0194 3.6726 26.7629L1.59572 32.9539L8.00133 30.9062C10.6365 32.6518 13.7799 33.6601 17.1692 33.6601C26.3578 33.6601 33.83 26.1837 33.83 16.9951C33.83 7.80641 26.3578 0.330078 17.1692 0.330078Z" fill="#4CAF50"/>
<path d="M26.8669 23.8631C26.4649 24.9984 24.8692 25.94 23.5964 26.2149C22.7257 26.4003 21.5883 26.5482 17.7595 24.9609C12.8621 22.9319 9.70821 17.9553 9.4624 17.6325C9.22701 17.3096 7.4834 14.9973 7.4834 12.6059C7.4834 10.2144 8.69786 9.04998 9.18743 8.55001C9.58947 8.13963 10.254 7.95215 10.8914 7.95215C11.0977 7.95215 11.2831 7.96256 11.4497 7.9709C11.9392 7.99173 12.185 8.02089 12.5079 8.79376C12.91 9.76241 13.889 12.1538 14.0057 12.3996C14.1244 12.6455 14.2432 12.9788 14.0765 13.3016C13.9203 13.6349 13.7828 13.7828 13.537 14.0661C13.2912 14.3495 13.0579 14.5661 12.8121 14.8702C12.5871 15.1348 12.3329 15.4181 12.6163 15.9076C12.8996 16.3867 13.8786 17.9845 15.3201 19.2677C17.1804 20.9238 18.6886 21.4529 19.2281 21.6779C19.6301 21.8445 20.1093 21.805 20.403 21.4925C20.7759 21.0904 21.2362 20.4238 21.7049 19.7677C22.0382 19.2969 22.459 19.2385 22.9006 19.4052C23.3506 19.5614 25.7316 20.7384 26.2211 20.9821C26.7107 21.2279 27.0336 21.3446 27.1523 21.5508C27.269 21.757 27.269 22.7257 26.8669 23.8631Z" fill="#FAFAFA"/>
</g>
</svg>
