<svg width="35" height="36" viewBox="0 0 35 36" fill="none" xmlns="http://www.w3.org/2000/svg">
<mask id="mask0_331_78" style="mask-type:luminance" maskUnits="userSpaceOnUse" x="0" y="0" width="35" height="36">
<path d="M35 0.160156H0V35.1602H35V0.160156Z" fill="white"/>
</mask>
<g mask="url(#mask0_331_78)">
<path d="M20.9408 26.9343V23.3568C20.9408 22.5973 20.7205 22.2175 20.2799 22.2175C20.0217 22.2175 19.7711 22.339 19.528 22.5821V27.6862C19.7711 27.9293 20.0217 28.0508 20.2799 28.0508C20.7205 28.0508 20.9408 27.6786 20.9408 26.9343ZM25.1335 24.1543H26.6374V23.3796C26.6374 22.6049 26.3867 22.2175 25.8854 22.2175C25.3841 22.2175 25.1335 22.6049 25.1335 23.3796V24.1543ZM12.1224 18.0931V19.6882H10.2995V29.3269H8.61328V19.6882H6.83594V18.0931H12.1224ZM16.7025 20.9642V29.3269H15.1758V28.4154C14.5833 29.099 14.0061 29.4408 13.444 29.4408C12.9427 29.4408 12.6237 29.2281 12.487 28.8028C12.3958 28.5445 12.3503 28.1344 12.3503 27.5723V20.9642H13.8542V27.1166C13.8542 27.4812 13.8618 27.6786 13.877 27.709C13.8921 27.9369 14.0061 28.0508 14.2188 28.0508C14.5226 28.0508 14.8416 27.8154 15.1758 27.3444V20.9642H16.7025ZM22.4447 23.4935V26.8204C22.4447 27.6103 22.3915 28.1648 22.2852 28.4838C22.1029 29.1218 21.7003 29.4408 21.0775 29.4408C20.5458 29.4408 20.0293 29.1294 19.528 28.5066V29.3269H18.0013V18.0931H19.528V21.7618C20.0141 21.1541 20.5306 20.8503 21.0775 20.8503C21.7003 20.8503 22.1029 21.1693 22.2852 21.8073C22.3915 22.1263 22.4447 22.6884 22.4447 23.4935ZM28.1641 26.433V26.6381C28.1641 27.0786 28.1489 27.4052 28.1185 27.6179C28.0729 27.9521 27.959 28.2559 27.7767 28.5293C27.3665 29.137 26.7589 29.4408 25.9538 29.4408C25.1638 29.4408 24.5486 29.1522 24.1081 28.5749C23.7891 28.1648 23.6296 27.5115 23.6296 26.6153V23.6758C23.6296 22.7796 23.7815 22.1263 24.0853 21.7162C24.5258 21.1389 25.1335 20.8503 25.9082 20.8503C26.6829 20.8503 27.2754 21.1389 27.6855 21.7162C28.0046 22.1567 28.1641 22.8099 28.1641 23.6758V25.4076H25.1335V26.8887C25.1335 27.6635 25.3917 28.0508 25.9082 28.0508C26.2728 28.0508 26.5007 27.8533 26.5918 27.4584C26.5918 27.4432 26.5956 27.39 26.6032 27.2989C26.6108 27.2077 26.6146 27.0824 26.6146 26.9229V26.433H28.1641ZM17.8874 7.65691V11.2116C17.8874 11.9864 17.6443 12.3737 17.1582 12.3737C16.6721 12.3737 16.429 11.9864 16.429 11.2116V7.65691C16.429 6.86697 16.6721 6.47201 17.1582 6.47201C17.6443 6.47201 17.8874 6.86697 17.8874 7.65691ZM30.0326 23.9037C30.0326 21.2149 29.8882 19.2401 29.5996 17.9792C29.4477 17.3108 29.1211 16.7525 28.6198 16.3044C28.1185 15.8563 27.5412 15.5942 26.888 15.5183C24.8221 15.2904 21.6927 15.1765 17.5 15.1765C13.3225 15.1765 10.2007 15.2904 8.13477 15.5183C7.46636 15.5942 6.88531 15.8563 6.3916 16.3044C5.8979 16.7525 5.57509 17.3108 5.42318 17.9792C5.11936 19.3008 4.96745 21.2757 4.96745 23.9037C4.96745 26.5773 5.11936 28.5521 5.42318 29.8282C5.57509 30.4814 5.8979 31.0359 6.3916 31.4916C6.88531 31.9473 7.45877 32.2132 8.11198 32.2891C10.1931 32.517 13.3225 32.6309 17.5 32.6309C21.6775 32.6309 24.8069 32.517 26.888 32.2891C27.5412 32.2132 28.1147 31.9473 28.6084 31.4916C29.1021 31.0359 29.4249 30.4814 29.5768 29.8282C29.8806 28.5521 30.0326 26.5773 30.0326 23.9037ZM12.8288 9.06967L14.8796 2.32487H13.1706L12.0085 6.76823L10.8008 2.32487H9.02344C9.12977 2.67427 9.30447 3.19835 9.54753 3.89714L10.0944 5.46941C10.6261 7.03408 10.9755 8.23416 11.1426 9.06967V13.6498H12.8288V9.06967ZM19.4141 10.9154V7.95313C19.4141 7.07205 19.2546 6.41125 18.9355 5.97071C18.495 5.39345 17.9026 5.10482 17.1582 5.10482C16.3835 5.10482 15.791 5.39345 15.3809 5.97071C15.0618 6.41125 14.9023 7.07205 14.9023 7.95313V10.9154C14.9023 11.7965 15.0618 12.4573 15.3809 12.8978C15.791 13.4751 16.3835 13.7637 17.1582 13.7637C17.9026 13.7637 18.495 13.4751 18.9355 12.8978C19.2546 12.4877 19.4141 11.8269 19.4141 10.9154ZM23.5384 13.6498H25.0651V5.21875H23.5384V11.6674C23.2042 12.1383 22.8852 12.3737 22.5814 12.3737C22.3535 12.3737 22.232 12.2522 22.2168 12.0092C22.2016 11.9788 22.194 11.7813 22.194 11.4167V5.21875H20.6673V11.8952C20.6673 12.4573 20.7129 12.875 20.804 13.1485C20.9711 13.5586 21.2977 13.7637 21.7839 13.7637C22.3307 13.7637 22.9156 13.4219 23.5384 12.7383V13.6498ZM35 6.72266V28.5977C35 30.4054 34.3582 31.9511 33.0745 33.2347C31.7909 34.5184 30.2452 35.1602 28.4375 35.1602H6.5625C4.75477 35.1602 3.20909 34.5184 1.92546 33.2347C0.641819 31.9511 0 30.4054 0 28.5977V6.72266C0 4.91493 0.641819 3.36925 1.92546 2.08562C3.20909 0.801975 4.75477 0.160156 6.5625 0.160156H28.4375C30.2452 0.160156 31.7909 0.801975 33.0745 2.08562C34.3582 3.36925 35 4.91493 35 6.72266Z" fill="white"/>
</g>
</svg>
