<svg width="150" height="267" viewBox="0 0 150 267" fill="none" xmlns="http://www.w3.org/2000/svg">
<mask id="mask0_539_719" style="mask-type:luminance" maskUnits="userSpaceOnUse" x="-115" y="0" width="265" height="267">
<path d="M-111.545 156.102C-106.963 152.46 -102.219 147.29 -98.4815 142.835C-89.2201 131.844 -81.6484 119.195 -76.774 105.667C-71.3796 90.6769 -68.5849 74.1906 -67.2851 58.3546C-66.6676 50.7455 -66.2452 42.6162 -66.5052 34.9746C-66.6027 32.2432 -64.4579 29.9344 -61.6957 29.8369C-58.966 29.7393 -56.6588 31.8855 -56.5613 34.6495C-56.2688 42.6812 -56.7238 51.2008 -57.3737 59.2001C-58.7385 75.914 -61.6957 93.2457 -67.4151 109.049C-72.6795 123.714 -80.836 137.372 -90.8449 149.273C-95.0044 154.248 -100.204 159.809 -105.306 163.906C-107.451 165.629 -110.603 165.272 -112.292 163.126C-114.015 160.979 -113.657 157.825 -111.513 156.134M-101.471 186.343C-89.675 175.905 -77.2614 162.117 -68.4224 149.208C-65.8227 145.404 -63.418 141.501 -61.3058 137.404C-49.6396 114.902 -47.9173 90.3842 -47.1049 65.5735C-46.5524 48.2742 -40.3456 31.1376 -34.9837 14.8789C-34.1388 12.2775 -31.3117 10.8468 -28.712 11.7247C-26.1123 12.5702 -24.6824 15.3992 -25.5598 18.0006C-30.5318 33.0561 -36.6736 49.9326 -37.1935 65.8986C-38.0709 92.3678 -40.0532 117.991 -52.5318 141.989C-54.839 146.412 -57.4712 150.704 -60.2659 154.834C-69.5273 168.393 -82.5258 182.864 -94.9394 193.822C-96.9867 195.643 -100.139 195.448 -101.959 193.399C-103.778 191.351 -103.583 188.196 -101.536 186.375L-101.471 186.343ZM-85.9055 210.568C-79.9911 205.723 -74.0443 199.838 -68.8449 194.245C-57.9261 182.538 -47.6248 169.044 -40.6706 154.573C-37.7784 148.558 -35.4062 142.217 -33.9439 135.681C-31.6041 125.21 -29.5894 114.675 -28.2895 104.009C-27.4446 96.9202 -26.9897 89.929 -26.5347 82.8077C-26.0473 75.1661 -25.3973 67.6871 -24.26 60.1105C-21.3678 41.218 -8.56425 17.3827 2.61448 2.03455C4.2393 -0.176632 7.35896 -0.664392 9.5687 0.961476C11.7785 2.58734 12.2659 5.70901 10.6411 7.92019C0.469727 21.8701 -11.8139 44.4047 -14.4461 61.6389C-15.551 68.9227 -16.1684 76.1091 -16.6233 83.458C-17.0783 90.7744 -17.5332 97.9607 -18.4431 105.245C-19.7755 116.203 -21.8552 127.096 -24.26 137.86C-25.8848 145.143 -28.4845 152.167 -31.7341 158.898C-39.1433 174.311 -49.9645 188.619 -61.6307 201.073C-67.1551 206.959 -73.3944 213.17 -79.6662 218.307C-81.7784 220.031 -84.9306 219.706 -86.6529 217.592C-88.3752 215.478 -88.0502 212.324 -85.938 210.601L-85.9055 210.568ZM-65.9527 231.705C-61.3707 227.64 -56.9188 223.088 -52.7267 218.665C-43.6928 209.105 -35.0487 198.732 -27.8671 187.709C-22.7001 179.774 -17.9232 170.93 -15.226 161.825C-10.6765 146.314 -8.20679 130.218 -6.90694 114.154C-6.41949 108.171 -6.12701 102.188 -5.86704 96.1723C-5.70456 92.4653 -5.67207 88.4006 -5.15214 84.7587C-4.24224 78.1252 -1.9675 70.6462 0.242249 64.3378C3.62186 54.6476 7.94388 44.99 13.4033 36.3078C15.1256 33.5439 17.0104 30.8124 19.0251 28.2435C23.9646 21.9352 29.229 15.3667 34.9158 9.70864C36.4431 8.18033 38.5554 6.0667 40.4077 4.96111C42.7474 3.53035 45.8021 4.27825 47.2319 6.6195C48.6617 8.96074 47.9468 12.0174 45.6396 13.4481C44.2422 14.3911 42.455 16.2446 41.2851 17.4478C36.1507 22.6831 31.3737 28.6337 26.8567 34.4218C25.0369 36.7306 23.3796 39.1694 21.8198 41.6407C16.7829 49.705 12.7533 58.6798 9.63368 67.6546C7.65141 73.3126 5.53916 80.2063 4.69425 86.1569C4.2393 89.4737 4.2068 93.2782 4.07682 96.66C3.81685 102.773 3.49189 108.887 3.00445 115C1.6396 131.779 -0.927612 148.525 -5.67207 164.686C-8.62924 174.734 -13.7962 184.424 -19.5155 193.204C-27.0222 204.715 -36.0236 215.576 -45.4801 225.559C-49.8671 230.209 -54.5465 234.924 -59.3235 239.184C-61.3708 241.005 -64.5229 240.809 -66.3427 238.761C-68.1625 236.712 -67.9675 233.558 -65.9202 231.737L-65.9527 231.705ZM-41.3855 248.549C-35.7312 243.508 -30.1093 237.493 -25.2024 231.77C-14.8685 219.803 -5.24963 206.048 0.989662 191.481C1.93206 189.269 2.80947 187.026 3.58938 184.782C9.04876 169.011 11.6485 152.85 12.8183 136.266C13.2733 129.763 13.5007 123.259 13.7932 116.723C14.0207 111.846 14.2157 106.643 15.0931 101.83C18.9926 80.5965 28.4491 59.5252 42.5524 43.1365C48.8567 35.7876 55.486 28.6012 62.5052 21.9027C64.9099 19.5939 67.5096 17.1551 70.1418 15.1065C72.2866 13.4156 75.4387 13.7733 77.1285 15.952C78.8183 18.1306 78.4609 21.2523 76.2836 22.9432C73.9114 24.8292 71.5392 27.0404 69.3619 29.1215C62.6027 35.5925 56.1684 42.5512 50.0916 49.64C37.1581 64.6955 28.4491 84.1409 24.907 103.619C24.127 107.911 23.9646 112.756 23.7696 117.146C23.4771 123.747 23.2496 130.348 22.7947 136.949C21.5598 154.411 18.7652 171.417 13.0133 188.001C12.1359 190.505 11.1935 192.944 10.1536 195.383C3.49188 210.894 -6.64697 225.461 -17.6307 238.208C-22.8626 244.289 -28.777 250.63 -34.7888 255.963C-36.836 257.784 -39.9882 257.588 -41.808 255.54C-43.6278 253.491 -43.4328 250.337 -41.3855 248.516V248.549ZM-10.774 257.523C-7.10191 254.239 -3.39734 249.784 -0.342682 245.98C8.17135 235.314 15.3855 223.413 21.2674 211.121C28.4491 196.066 30.3663 178.994 31.3737 162.508C32.2511 148.103 32.1211 130.511 36.3132 116.788C43.6573 92.823 50.709 76.5318 67.2821 57.4116C73.4889 50.2578 80.0207 43.2991 86.9424 36.8281C89.3796 34.5519 91.9793 32.1781 94.644 30.1621C96.8213 28.5037 99.9409 28.9264 101.631 31.1051C103.288 33.2837 102.866 36.4054 100.688 38.0963C98.3161 39.9173 95.9114 42.0959 93.7341 44.1445C87.0724 50.3553 80.7681 57.0864 74.8213 63.9476C59.1906 81.9622 52.7563 97.1153 45.8346 119.682C43.9498 125.861 43.2024 132.689 42.6824 139.095C42.0325 147.094 41.805 155.126 41.3176 163.126C40.2127 180.978 38.0355 199.057 30.2363 215.413C24.062 228.388 16.4254 240.94 7.42393 252.191C4.01182 256.45 -0.050209 261.263 -4.14474 264.937C-6.19201 266.758 -9.34416 266.596 -11.164 264.58C-12.9837 262.531 -12.8213 259.377 -10.8065 257.556L-10.774 257.523ZM24.9395 258.759C28.5141 254.662 32.0561 248.809 34.6558 244.094C41.7725 231.119 46.6795 216.812 49.2467 202.244C50.969 192.489 52.1714 182.799 52.8213 172.913C53.2762 166.15 53.4062 159.321 54.1211 152.622C54.8685 145.761 56.3309 139.388 58.5731 132.819C65.1699 113.634 75.6337 93.7985 88.5672 78.0926C96.3013 68.6951 105.303 59.3952 114.109 50.9732C116.092 49.0872 119.244 49.1522 121.129 51.1358C123.013 53.1193 122.948 56.2735 120.966 58.1595C112.452 66.3214 103.71 75.3287 96.2363 84.401C84.0827 99.1964 74.2038 117.959 67.9646 136.039C65.9498 141.892 64.6824 147.517 64 153.663C63.2851 160.231 63.1551 166.93 62.7327 173.531C62.0502 183.774 60.8154 193.822 59.0281 203.935C56.2659 219.576 51.0015 234.924 43.3649 248.841C40.4077 254.207 36.5081 260.613 32.4461 265.263C30.6588 267.344 27.5067 267.539 25.4269 265.75C23.3471 263.962 23.1522 260.808 24.9395 258.727V258.759ZM60.8804 250.63C62.6027 247.606 64.0975 243.508 65.2024 240.257C68.6145 230.306 70.6942 219.673 71.7991 209.235C72.644 201.138 73.0665 193.107 73.3589 184.977C73.5864 178.636 73.7489 172.263 74.5613 165.987C75.2762 160.427 76.5436 155.126 78.3959 149.826C84.4077 132.722 96.6588 112.008 108.292 98.2534C114.857 90.5143 122.201 82.8402 129.578 75.8489C131.56 73.9629 134.712 74.0605 136.597 76.044C138.482 78.0276 138.384 81.1818 136.402 83.0678C129.285 89.8314 122.201 97.2128 115.864 104.692C105.01 117.504 93.3767 137.177 87.7548 153.11C86.13 157.76 85.0251 162.41 84.4077 167.255C83.6278 173.206 83.4978 179.287 83.2703 185.302C82.9778 193.659 82.5554 201.919 81.678 210.243C80.5081 221.462 78.2659 232.81 74.5938 243.476C73.2615 247.345 71.5392 251.93 69.5244 255.507C68.192 257.881 65.1374 258.727 62.7327 257.393C60.3604 256.06 59.5155 253.003 60.8479 250.597L60.8804 250.63ZM91.4919 234.989C91.3294 228.485 91.6219 221.754 92.0443 215.283C92.9542 201.398 94.839 187.253 98.3486 173.791C99.7459 168.491 101.403 163.223 103.418 158.15C108.91 144.461 116.644 131.551 126.068 120.17C129.87 115.585 134.614 110.317 139.229 106.513C141.341 104.757 144.493 105.082 146.216 107.196C147.97 109.309 147.645 112.463 145.533 114.187C141.374 117.634 137.019 122.511 133.607 126.641C124.898 137.177 117.749 149.143 112.647 161.825C110.762 166.54 109.235 171.385 107.967 176.295C104.62 189.139 102.833 202.699 101.956 215.966C101.566 222.145 101.273 228.583 101.436 234.761C101.501 237.493 99.3235 239.801 96.5938 239.867C93.8641 239.932 91.5569 237.753 91.4919 235.021V234.989ZM115.182 211.219C116.936 199.643 120.284 185.465 125.093 174.767C128.863 166.312 134.387 156.622 140.139 149.273C141.829 147.127 144.981 146.737 147.126 148.428C149.27 150.119 149.66 153.273 147.97 155.419C142.706 162.15 137.637 171.125 134.192 178.864C129.773 188.717 126.653 202.049 125.028 212.747C124.606 215.446 122.071 217.332 119.374 216.909C116.677 216.486 114.792 213.95 115.214 211.251L115.182 211.219ZM-113.95 115.553C-107.678 107.488 -101.471 96.595 -97.7666 87.1975C-94.2245 78.1902 -91.0399 67.3294 -89.545 57.7043C-89.1226 55.0053 -86.5879 53.1193 -83.8582 53.542C-81.161 53.9648 -79.2762 56.5011 -79.6987 59.2326C-81.291 69.5731 -84.6706 81.1818 -88.5052 90.872C-92.5672 101.18 -99.2289 112.886 -106.086 121.698C-107.775 123.877 -110.895 124.267 -113.072 122.576C-115.25 120.885 -115.64 117.764 -113.95 115.585V115.553Z" fill="white"/>
</mask>
<g mask="url(#mask0_539_719)">
<path d="M16.9958 -133.377L-249.668 133.46L16.9957 400.296L283.66 133.459L16.9958 -133.377Z" fill="url(#paint0_linear_539_719)"/>
</g>
<defs>
<linearGradient id="paint0_linear_539_719" x1="-116.132" y1="266.944" x2="150.682" y2="0.30364" gradientUnits="userSpaceOnUse">
<stop stopColor="#9999CB"/>
<stop offset="0.49" stopColor="#BB9CCB"/>
<stop offset="1" stopColor="#FFADC6"/>
</linearGradient>
</defs>
</svg>
