<svg width="128" height="130" viewBox="0 0 128 130" fill="none" xmlns="http://www.w3.org/2000/svg">
<mask id="mask0_491_7356" style="mask-type:luminance" maskUnits="userSpaceOnUse" x="-1" y="-1" width="130" height="131">
<path d="M1.66927 75.6762C3.89084 73.9104 6.19118 71.4036 8.0031 69.2437C12.4935 63.9147 16.1646 57.7818 18.528 51.2231C21.1434 43.955 22.4984 35.9617 23.1287 28.2836C23.428 24.5944 23.6328 20.6529 23.5068 16.9479C23.4595 15.6235 24.4994 14.5041 25.8386 14.4568C27.1621 14.4095 28.2808 15.4501 28.3281 16.7902C28.4699 20.6844 28.2493 24.8151 27.9342 28.6935C27.2724 36.7973 25.8386 45.2005 23.0656 52.8628C20.5132 59.9733 16.5585 66.595 11.7057 72.3653C9.68896 74.7775 7.16804 77.4735 4.69438 79.46C3.6545 80.2956 2.12619 80.1222 1.30689 79.0816C0.47183 78.0411 0.645144 76.5118 1.68503 75.6919M6.55356 90.3385C12.2729 85.2777 18.2916 78.5929 22.5772 72.3338C23.8377 70.4892 25.0036 68.5973 26.0277 66.6107C31.684 55.7007 32.5191 43.8131 32.913 31.7837C33.1808 23.3962 36.1902 15.0875 38.7899 7.20449C39.1996 5.94321 40.5703 5.24951 41.8308 5.67519C43.0912 6.08511 43.7845 7.45675 43.3591 8.71803C40.9484 16.0177 37.9706 24.2002 37.7185 31.9413C37.2931 44.7748 36.332 57.1984 30.2818 68.8337C29.1631 70.9779 27.8869 73.059 26.5319 75.0613C22.0415 81.6357 15.7392 88.6516 9.72048 93.9647C8.72786 94.8476 7.19955 94.753 6.31723 93.7598C5.4349 92.7665 5.52944 91.2372 6.52205 90.3543L6.55356 90.3385ZM14.1006 102.084C16.9681 99.7351 19.8514 96.8814 22.3724 94.1697C27.6663 88.4939 32.6609 81.951 36.0326 74.9352C37.4349 72.0185 38.5851 68.9441 39.2941 65.7751C40.4285 60.6985 41.4054 55.5903 42.0356 50.4191C42.4452 46.9821 42.6658 43.5924 42.8864 40.1396C43.1227 36.4346 43.4379 32.8085 43.9893 29.135C45.3916 19.9749 51.5994 8.41847 57.0193 0.976926C57.8071 -0.0951611 59.3197 -0.331651 60.3911 0.456649C61.4625 1.24495 61.6988 2.75848 60.911 3.83057C55.9795 10.5942 50.0238 21.52 48.7476 29.876C48.2119 33.4076 47.9125 36.8918 47.6919 40.455C47.4713 44.0023 47.2508 47.4866 46.8096 51.0182C46.1636 56.3313 45.1552 61.6129 43.9893 66.8315C43.2015 70.363 41.9411 73.7685 40.3655 77.0321C36.7732 84.5051 31.5265 91.4422 25.8702 97.4805C23.1917 100.334 20.1666 103.345 17.1257 105.837C16.1016 106.672 14.5733 106.514 13.7382 105.49C12.9031 104.465 13.0607 102.936 14.0848 102.1L14.1006 102.084ZM23.7746 112.332C25.9962 110.361 28.1547 108.154 30.1872 106.01C34.5673 101.375 38.7584 96.3454 42.2404 91.0007C44.7456 87.1538 47.0617 82.8655 48.3694 78.451C50.5752 70.9306 51.7727 63.1264 52.4029 55.3381C52.6392 52.4371 52.781 49.5362 52.9071 46.6195C52.9859 44.8221 53.0016 42.8514 53.2537 41.0856C53.6949 37.8693 54.7978 34.2432 55.8692 31.1846C57.5078 26.4863 59.6033 21.8038 62.2503 17.5943C63.0853 16.2542 63.9992 14.9298 64.976 13.6843C67.3709 10.6257 69.9233 7.44098 72.6806 4.6977C73.4211 3.9567 74.4452 2.93191 75.3433 2.39587C76.4777 1.70216 77.9588 2.06478 78.652 3.19993C79.3453 4.33508 78.9987 5.81709 77.88 6.51079C77.2025 6.968 76.3359 7.86666 75.7687 8.45001C73.2793 10.9883 70.9632 13.8735 68.7732 16.6799C67.8908 17.7992 67.0873 18.9817 66.331 20.1799C63.8889 24.0899 61.9352 28.4413 60.4226 32.7927C59.4615 35.536 58.4374 38.8784 58.0277 41.7635C57.8071 43.3717 57.7914 45.2163 57.7284 46.856C57.6023 49.82 57.4448 52.784 57.2084 55.748C56.5467 63.8832 55.302 72.0027 53.0016 79.8384C51.5678 84.7101 49.0627 89.4084 46.2897 93.6652C42.6501 99.2463 38.2857 104.512 33.7008 109.352C31.5737 111.607 29.3049 113.893 26.9888 115.958C25.9962 116.841 24.4679 116.747 23.5856 115.753C22.7032 114.76 22.7978 113.231 23.7904 112.348L23.7746 112.332ZM35.686 120.499C38.4275 118.055 41.1533 115.138 43.5324 112.364C48.5427 106.562 53.2064 99.8927 56.2316 92.8296C56.6885 91.7575 57.1139 90.6696 57.492 89.5818C60.139 81.9353 61.3995 74.0996 61.9667 66.0589C62.1872 62.9057 62.2975 59.7525 62.4393 56.5836C62.5496 54.2187 62.6442 51.6961 63.0696 49.3627C64.9603 39.0676 69.5452 28.8512 76.3832 20.9051C79.4398 17.342 82.654 13.8577 86.0573 10.6099C87.2232 9.49056 88.4837 8.30811 89.7599 7.31485C90.7998 6.49502 92.3281 6.66845 93.1474 7.72477C93.9667 8.78109 93.7934 10.2946 92.7377 11.1145C91.5875 12.0289 90.4374 13.101 89.3817 14.11C86.1045 17.2474 82.9849 20.6213 80.0386 24.0583C73.7677 31.358 69.5452 40.786 67.8278 50.2299C67.4497 52.311 67.3709 54.6601 67.2764 56.7885C67.1346 59.989 67.0243 63.1895 66.8037 66.39C66.205 74.8563 64.85 83.102 62.0612 91.1426C61.6358 92.3566 61.1789 93.539 60.6747 94.7215C57.4448 102.242 52.5289 109.305 47.2035 115.485C44.6668 118.434 41.7993 121.508 38.8844 124.094C37.8918 124.976 36.3635 124.882 35.4812 123.889C34.5989 122.895 34.6934 121.366 35.686 120.483V120.499ZM50.528 124.85C52.3084 123.258 54.1045 121.098 55.5856 119.253C59.7136 114.082 63.2114 108.312 66.0632 102.352C69.5452 95.0526 70.4748 86.7754 70.9632 78.7821C71.3886 71.7978 71.3256 63.2683 73.3581 56.6151C76.9189 44.9956 80.3379 37.0968 88.3734 27.8264C91.3827 24.3579 94.5496 20.984 97.9056 17.8465C99.0873 16.7429 100.348 15.592 101.64 14.6145C102.695 13.8104 104.208 14.0154 105.027 15.0717C105.831 16.128 105.626 17.6416 104.57 18.4614C103.42 19.3443 102.254 20.4006 101.199 21.3939C97.9686 24.4052 94.912 27.6687 92.0287 30.9954C84.4502 39.7297 81.3305 47.0767 77.9745 58.0183C77.0607 61.0138 76.6983 64.3247 76.4462 67.4306C76.1311 71.309 76.0208 75.2032 75.7845 79.0816C75.2488 87.7372 74.1932 96.5031 70.4118 104.433C67.4182 110.724 63.7156 116.81 59.3512 122.265C57.6968 124.33 55.7274 126.663 53.7421 128.445C52.7495 129.328 51.2212 129.249 50.3389 128.272C49.4566 127.278 49.5354 125.749 50.5122 124.866L50.528 124.85ZM67.8436 125.449C69.5767 123.463 71.2941 120.625 72.5546 118.339C76.0051 112.048 78.3842 105.111 79.6289 98.0481C80.464 93.3183 81.0469 88.6201 81.362 83.8272C81.5826 80.5479 81.6456 77.237 81.9923 73.9892C82.3547 70.6626 83.0637 67.5725 84.1508 64.3877C87.3492 55.0858 92.4226 45.4685 98.6934 37.8536C102.443 33.2972 106.808 28.7881 111.077 24.7047C112.039 23.7903 113.567 23.8218 114.481 24.7836C115.395 25.7453 115.363 27.2746 114.402 28.189C110.274 32.1463 106.036 36.5135 102.412 40.9122C96.5191 48.0857 91.7293 57.1827 88.7042 65.9486C87.7274 68.7864 87.1129 71.514 86.782 74.4937C86.4354 77.6785 86.3724 80.9263 86.1675 84.1268C85.8367 89.093 85.238 93.9647 84.3714 98.868C83.0322 106.451 80.4797 113.893 76.7771 120.641C75.3433 123.242 73.4526 126.348 71.4832 128.603C70.6166 129.612 69.0883 129.706 68.0799 128.839C67.0715 127.972 66.977 126.443 67.8436 125.434V125.449ZM85.2695 121.508C86.1045 120.042 86.8293 118.055 87.365 116.479C89.0193 111.654 90.0277 106.499 90.5634 101.438C90.9731 97.5121 91.1779 93.6179 91.3197 89.6764C91.43 86.602 91.5088 83.5119 91.9027 80.469C92.2493 77.7731 92.8638 75.2032 93.7618 72.6333C96.6767 64.3404 102.617 54.2975 108.257 47.6285C111.44 43.8762 115.001 40.1554 118.577 36.7657C119.538 35.8513 121.067 35.8986 121.98 36.8603C122.894 37.822 122.847 39.3513 121.886 40.2658C118.435 43.5451 115.001 47.124 111.928 50.7501C106.666 56.9619 101.025 66.5004 98.2995 74.2257C97.5117 76.4802 96.976 78.7348 96.6767 81.0839C96.2985 83.9691 96.2355 86.9173 96.1252 89.834C95.9834 93.8859 95.7786 97.8905 95.3532 101.927C94.786 107.366 93.6988 112.868 91.9184 118.039C91.2724 119.916 90.4374 122.139 89.4605 123.873C88.8145 125.024 87.3335 125.434 86.1675 124.787C85.0174 124.141 84.6077 122.659 85.2537 121.492L85.2695 121.508ZM100.111 113.924C100.033 110.771 100.174 107.508 100.379 104.37C100.82 97.6382 101.734 90.78 103.436 84.2529C104.113 81.683 104.917 79.1289 105.894 76.6694C108.557 70.032 112.306 63.7729 116.876 58.2548C118.719 56.0318 121.019 53.4777 123.257 51.633C124.281 50.7817 125.809 50.9393 126.644 51.9641C127.495 52.9889 127.337 54.5182 126.313 55.3538C124.297 57.025 122.185 59.3899 120.531 61.3922C116.308 66.5004 112.842 72.3023 110.368 78.451C109.455 80.7371 108.714 83.0862 108.1 85.4669C106.477 91.6944 105.61 98.2689 105.185 104.701C104.996 107.697 104.854 110.819 104.933 113.814C104.964 115.138 103.909 116.258 102.585 116.289C101.262 116.321 100.143 115.265 100.111 113.94V113.924ZM111.597 102.4C112.448 96.7868 114.071 89.9129 116.403 84.7259C118.231 80.6267 120.909 75.9284 123.698 72.3653C124.517 71.3248 126.045 71.1356 127.085 71.9554C128.125 72.7752 128.314 74.3045 127.495 75.3451C124.943 78.6087 122.485 82.9601 120.815 86.7124C118.672 91.4895 117.159 97.9535 116.371 103.141C116.167 104.449 114.938 105.364 113.63 105.159C112.322 104.954 111.408 103.724 111.613 102.415L111.597 102.4ZM0.503342 56.016C3.54421 52.106 6.55356 46.8244 8.34972 42.268C10.0671 37.9009 11.6112 32.635 12.3359 27.9683C12.5408 26.6597 13.7697 25.7453 15.0932 25.9503C16.4009 26.1552 17.3148 27.385 17.1099 28.7093C16.3379 33.7229 14.6993 39.3513 12.8401 44.0496C10.8706 49.0474 7.64071 54.7232 4.31624 58.9958C3.49694 60.0521 1.98439 60.2413 0.928748 59.4214C-0.12689 58.6016 -0.315959 57.0881 0.503342 56.0318V56.016Z" fill="white"/>
</mask>
<g mask="url(#mask0_491_7356)">
<path d="M63.9928 -64.6771L-65.2988 64.6982L63.9928 194.073L193.284 64.6982L63.9928 -64.6771Z" fill="url(#paint0_linear_491_7356)"/>
</g>
<defs>
<linearGradient id="paint0_linear_491_7356" x1="-0.553836" y1="129.418" x2="128.81" y2="0.137756" gradientUnits="userSpaceOnUse">
<stop stop-color="#9999CB"/>
<stop offset="0.49" stop-color="#BB9CCB"/>
<stop offset="1" stop-color="#FFADC6"/>
</linearGradient>
</defs>
</svg>
