<svg width="180" height="43" viewBox="0 0 180 43" fill="none" xmlns="http://www.w3.org/2000/svg">
<g clip-path="url(#clip0_657_922)">
<path d="M243.5 -98.5C243.5 -60.4862 218.686 -25.4967 179.409 0.0149841C140.142 25.5209 86.4886 41.5 29 41.5C-28.5468 41.5 -80.9663 34.2496 -118.98 17.4768C-156.977 0.711258 -180.5 -25.521 -180.5 -63.5C-180.5 -101.543 -155.279 -144.791 -115.608 -178.554C-75.9511 -212.304 -21.9376 -236.5 35.5 -236.5C92.9911 -236.5 145.017 -221.02 182.655 -196.018C220.297 -171.013 243.5 -136.526 243.5 -98.5Z" stroke="#E6E6F1"/>
<path d="M240.5 -106.5C240.5 -68.4862 215.686 -33.4967 176.409 -7.98502C137.142 17.5209 83.4886 33.5 26 33.5C-31.5468 33.5 -83.9663 26.2496 -121.98 9.47684C-159.977 -7.28874 -183.5 -33.521 -183.5 -71.5C-183.5 -109.543 -158.279 -152.791 -118.608 -186.554C-78.9511 -220.304 -24.9376 -244.5 32.5 -244.5C89.9911 -244.5 142.017 -229.02 179.655 -204.018C217.297 -179.013 240.5 -144.526 240.5 -106.5Z" stroke="#E6E6F1"/>
<path d="M238.5 -114.5C238.5 -76.4862 213.686 -41.4967 174.409 -15.985C135.142 9.52087 81.4886 25.5 24 25.5C-33.5468 25.5 -85.9663 18.2496 -123.98 1.47684C-161.977 -15.2887 -185.5 -41.521 -185.5 -79.5C-185.5 -117.543 -160.279 -160.791 -120.608 -194.554C-80.9511 -228.304 -26.9376 -252.5 30.5 -252.5C87.9911 -252.5 140.017 -237.02 177.655 -212.018C215.297 -187.013 238.5 -152.526 238.5 -114.5Z" stroke="#E6E6F1"/>
<path d="M236.5 -122.5C236.5 -84.4862 211.686 -49.4967 172.409 -23.985C133.142 1.52087 79.4886 17.5 22 17.5C-35.5468 17.5 -87.9663 10.2496 -125.98 -6.52316C-163.977 -23.2887 -187.5 -49.521 -187.5 -87.5C-187.5 -125.543 -162.279 -168.791 -122.608 -202.554C-82.9511 -236.304 -28.9376 -260.5 28.5 -260.5C85.9911 -260.5 138.017 -245.02 175.655 -220.018C213.297 -195.013 236.5 -160.526 236.5 -122.5Z" stroke="#E6E6F1"/>
<path d="M233.5 -130.5C233.5 -92.4862 208.686 -57.4967 169.409 -31.985C130.142 -6.47913 76.4886 9.5 19 9.5C-38.5468 9.5 -90.9663 2.24963 -128.98 -14.5232C-166.977 -31.2887 -190.5 -57.521 -190.5 -95.5C-190.5 -133.543 -165.279 -176.791 -125.608 -210.554C-85.9511 -244.304 -31.9376 -268.5 25.5 -268.5C82.9911 -268.5 135.017 -253.02 172.655 -228.018C210.297 -203.013 233.5 -168.526 233.5 -130.5Z" stroke="#E6E6F1"/>
<path d="M229.5 -137.5C229.5 -99.4862 204.686 -64.4967 165.409 -38.985C126.142 -13.4791 72.4886 2.5 15 2.5C-42.5468 2.5 -94.9663 -4.75037 -132.98 -21.5232C-170.977 -38.2887 -194.5 -64.521 -194.5 -102.5C-194.5 -140.543 -169.279 -183.791 -129.608 -217.554C-89.9511 -251.304 -35.9376 -275.5 21.5 -275.5C78.9911 -275.5 131.017 -260.02 168.655 -235.018C206.297 -210.013 229.5 -175.526 229.5 -137.5Z" stroke="#E6E6F1"/>
</g>
<defs>
<clipPath id="clip0_657_922">
<rect width="180" height="43" fill="white"/>
</clipPath>
</defs>
</svg>
